<?xml version="1.0" standalone="no"?>
<!DOCTYPE svg PUBLIC "-//W3C//DTD SVG 1.1//EN" "http://www.w3.org/Graphics/SVG/1.1/DTD/svg11.dtd" >
<svg xmlns="http://www.w3.org/2000/svg" xmlns:xlink="http://www.w3.org/1999/xlink" version="1.1">
<metadata></metadata>
<defs>
<font id="vtks_morning_rain_3dregular" horiz-adv-x="1147" >
<font-face units-per-em="2048" ascent="1638" descent="-410" />
<missing-glyph horiz-adv-x="569" />
<glyph horiz-adv-x="0" />
<glyph unicode="&#xd;" horiz-adv-x="569" />
<glyph unicode=" "  horiz-adv-x="569" />
<glyph unicode="&#x09;" horiz-adv-x="569" />
<glyph unicode="&#xa0;" horiz-adv-x="569" />
<glyph unicode="!" horiz-adv-x="691" d="M35 24v244l26 27l-26 27v927l59 61h4l197 197h304l57 -58v-926l-28 -28l28 -28v-242l-197 -197v-4l-59 -59h-306zM70 39l39 -39h276l39 39v215l-35 36h-284l-35 -36v-215zM70 337l7 -7h340l7 7v898l-39 40h-276l-39 -40v-898z" />
<glyph unicode="&#x22;" horiz-adv-x="727" />
<glyph unicode="#" horiz-adv-x="1139" />
<glyph unicode="$" horiz-adv-x="1139" />
<glyph unicode="%" horiz-adv-x="1821" />
<glyph unicode="&#x26;" horiz-adv-x="1366" />
<glyph unicode="'" horiz-adv-x="391" />
<glyph unicode="(" horiz-adv-x="682" />
<glyph unicode=")" horiz-adv-x="682" />
<glyph unicode="*" horiz-adv-x="797" />
<glyph unicode="+" horiz-adv-x="1196" />
<glyph unicode="," horiz-adv-x="705" d="M32 -66q89 176 148 259h4l197 197h69l170 3l55 -54v-69l-232 -284l-181 -181l-18 -22q-212 49 -212 151zM67 -74q0 -65 164 -104l212 259v44l-37 36l-155 -3h-54q-22 -31 -53.5 -88t-76.5 -144z" />
<glyph unicode="-" horiz-adv-x="1164" d="M32 449v440h6l197 197h24l197 197h40.5h57t65 0.5t65 0.5t57 0.5t40.5 0.5t42.5 0.5t61.5 0.5t71 0.5t71 0.5h62h43v-409l-197 -197v-24l-197 -197v-6q-20 0 -64.5 -0.5t-94.5 -1t-96.5 -1t-69.5 -0.5h-26q-40 0 -95 -0.5t-108 -1t-95.5 -0.5h-56.5zM67 484h56.5t87 0.5 l95 1t81.5 0.5h26q23 0 64 0.5t84.5 1t82.5 1t59 0.5v6l197 197v363h-40.5h-56t-63 -0.5t-63 -0.5t-55.5 -0.5t-40 -0.5q-23 0 -66 -0.5t-90 -1t-90.5 -0.5h-65.5l-197 -197h-6v-370zM102 519v300h60.5t80 0.5t79.5 1t61 0.5q22 0 61 0.5t81 1t81 0.5h62v-299 q-20 0 -53.5 -0.5t-70.5 -1t-72.5 -1t-58.5 -0.5h-26q-26 0 -66 -0.5t-82 -1t-79 -0.5h-58z" />
<glyph unicode="." horiz-adv-x="689" d="M34 24v249l59 59h4l197 197h304l57 -57v-247l-197 -197v-4l-59 -59h-306zM69 39l39 -39h276l39 39v219l-39 39h-276l-39 -39v-219z" />
<glyph unicode="/" horiz-adv-x="1094" d="M29 -115l569 1610l4 -2l198 198l265 -91l-568 -1607l-195 -194l-3 -10zM74 -94l204 -72l546 1546l-204 71z" />
<glyph unicode="0" horiz-adv-x="1313" d="M36 309v938l59 59h4l197 197h695q107 0 178 -61.5t104 -187.5l4 -83v-946l-197 -197v-4l-60 -59h-691q-203 0 -285 228zM71 310l8 -110q71 -200 250 -200h676l40 39v932l-4 78q-29 112 -92 167t-158 55h-681l-39 -39v-922zM425 308v652h265v-652h-265z" />
<glyph unicode="1" horiz-adv-x="867" d="M32 984v263l59 59h4l197 197h258q195 0 278 -226l4 -54v-998l-197 -197v-4l-59 -59h-302l-59 59v901h-124zM67 999l39 -39h144v-921l39 -39h272l39 39v983l-4 49q-72 200 -246 200h-244l-39 -39v-233z" />
<glyph unicode="2" horiz-adv-x="1311" d="M35 24v499q0 205 113 284l118 118h-172l-59 59v263l59 59h4l197 197h920l57 -57v-430q0 -5 0.5 -11.5t1.5 -13.5q1 -8 1 -14t1 -13q0 -99 -101 -200l-161 -161q-12 -15 -25.5 -30t-29.5 -29q-2 -2 -3.5 -2.5t-3.5 -1.5h320v-100q0 -103 -72 -175l-170 -170 q-53 -73 -170 -122l-74 -8h-692zM70 39l39 -39h674l68 8q189 78 189 232v68h-616v218h383q60 0 134 48q103 97 103 186l-2 28l-2 28v416l-39 39h-892l-39 -39v-233l39 -39h580v-122h-322q-115 0 -183 -51q-114 -66 -114 -264v-484z" />
<glyph unicode="3" horiz-adv-x="1307" d="M35 24v399l59 60h4l197 197h15v133l60 60h4l52 52h-332l-59 59v263l59 59h4l197 197h920l57 -57v-358q0 -85 -41 -149l41 -41v-433q0 -125 -80 -205l-172 -172q-55 -75 -160 -111q-16 -5 -33.5 -8.5t-40.5 -3.5h-692zM70 39l39 -39h677q19 0 34 2.5t28 7.5 q92 32 142 96.5t50 158.5v419l-39 39h-25q64 64 64 165v344l-39 39h-892l-39 -39v-233l39 -39h577v-122h-301l-40 -40v-232l40 -40h301v-218h-265v100l-40 40h-272l-39 -40v-369z" />
<glyph unicode="4" horiz-adv-x="1309" d="M32 750l5 59v438l59 59h4l197 197h300l58 -57v-197l57 57h4l197 197h304l57 -57v-970q0 -139 -82 -221l-174 -174q-45 -60 -125 -96q-53 -20 -116 -20h-65l-59 59v467h-327q-198 0 -278 203zM67 756l15 -50q70 -180 244 -180h362v-487l39 -39h50q28 0 53 4t50 14 q162 72 162 258v956l-39 39h-276l-39 -39v-394h-265v394l-40 39h-272l-39 -39v-423z" />
<glyph unicode="5" horiz-adv-x="1308" d="M36 24v263l59 59h4l91 91q-89 46 -141 160l-13 82v570l59 61h4l197 197h641q105 0 177 -34t110 -100l1 -1q48 -81 48 -187l-197 -197v-4l-14 -14q69 -15 119.5 -69t87.5 -147l4 -54v-475l-197 -197v-4l-59 -59h-922zM71 39l39 -39h892l39 39v460l-4 49q-75 197 -229 197 h-386v218h583l36 36q0 85 -44 157h1q-70 119 -261 119h-627l-39 -40v-551l13 -79q76 -168 262 -168h341v-126h-577l-39 -39v-233z" />
<glyph unicode="6" horiz-adv-x="1310" d="M36 273v974l59 59h4l197 197h304l57 -57v-376h291q329 0 329 -340v-505l-197 -197v-4l-60 -59h-684q-239 0 -296 255zM71 274l4 -50q51 -224 261 -224h669l40 39v491q0 308 -297 308h-323v394l-39 39h-276l-39 -39v-958zM425 308v218h265v-218h-265z" />
<glyph unicode="7" horiz-adv-x="1303" d="M35 24v552q0 144 105 225l124 124h-170l-59 59v263l59 59h4l197 197h920l57 -57v-476q0 -110 -73 -183l-174 -174q-57 -76 -185 -122h-184v-266l-197 -197v-4l-59 -59h-306zM70 39l39 -39h276l39 39v487h410q206 72 206 244v462l-39 39h-892l-39 -39v-233l39 -39h577 v-122h-321l-86 -7q-209 -66 -209 -255v-537z" />
<glyph unicode="8" horiz-adv-x="1292" d="M34 197v365q0 67 18.5 121t60.5 99v296q0 112 91 180l174 174q47 47 131 77l115 8h243q188 0 260 -98q51 -60 51 -141v-298q38 -44 58.5 -99.5t20.5 -118.5v-537l-197 -197v-4l-59 -59h-696q-191 0 -271 232zM69 202q69 -202 236 -202h681l39 39v523q0 60 -21 113t-58 93 v310q0 70 -43 120q-60 87 -236 87h-242l-110 -8q-167 -59 -167 -199v-310q-42 -42 -60.5 -92t-18.5 -114v-360zM406 308v218h283v-218h-283zM467 888v104h161v-104h-161z" />
<glyph unicode="9" horiz-adv-x="1305" d="M32 687v560l59 59h4l197 197h680q227 0 294 -239l3 -55v-984l-197 -197v-4l-59 -59h-306l-59 59v374h-288q-260 0 -325 244zM67 688l3 -40q56 -215 290 -215h323v-394l39 -39h276l39 39v969l-3 50q-59 213 -262 213h-666l-39 -39v-544zM418 745v218h265v-218h-265z" />
<glyph unicode=":" horiz-adv-x="687" d="M35 259v245l49 49l-49 50v243l59 61h4l197 197h300l57 -58v-242l-50 -51l50 -50v-243l-197 -197v-4l-59 -59h-302zM70 274l39 -39h272l39 39v215l-39 39h-272l-39 -39v-215zM70 618l39 -40h272l39 40v214l-39 40h-272l-39 -40v-214z" />
<glyph unicode=";" horiz-adv-x="735" d="M33 -80q25 49 46.5 89t40.5 73l-37 38v245l59 59h4l197 197h304l57 -57v-243l-28 -28v-39l-232 -283l-181 -180l-18 -23q-212 49 -212 152zM68 -90q0 -64 164 -103l212 258v45l-37 36l-155 -4h-54q-22 -30 -53.5 -87t-76.5 -145zM118 135l39 -39h276l39 39v215l-39 39 h-276l-39 -39v-215z" />
<glyph unicode="&#x3c;" horiz-adv-x="1196" />
<glyph unicode="=" horiz-adv-x="1196" />
<glyph unicode="&#x3e;" horiz-adv-x="1196" />
<glyph unicode="?" horiz-adv-x="1307" d="M35 24v244l26 27l-26 27v204q0 100 29.5 171.5t86.5 113.5l117 117h-174l-59 60v261l59 61h4l197 197h920l57 -58v-432q1 -5 1 -12.5t1 -13.5q1 -5 1.5 -12t0.5 -15q0 -96 -87 -183q-5 -5 -8.5 -9t-8.5 -8l-149 -149q-36 -47 -98 -92q-72 -28 -114 -28h-183l28 -28v-242 l-197 -197v-4l-59 -59h-306zM70 39l39 -39h276l39 39v215l-35 36h-284l-35 -36v-215zM70 337l7 -7h340l7 7v193h387q35 0 98 24q135 99 135 210q-1 11 -2 24t-2 25v422l-39 40h-892l-39 -40v-232l39 -40h580v-125h-336q-45 0 -77.5 -6.5t-58.5 -23.5q-147 -61 -147 -282 v-189z" />
<glyph unicode="@" horiz-adv-x="1422" d="M33 535v19q0 263 212 437l153 153q26 26 57.5 51t66.5 48q69 39 141 58.5t144 19.5h12q353 0 533 -366q37 -105 37 -205v-11q0 -232 -157 -389l-160 -160q-88 -109 -248 -188q-105 -37 -205 -37h-23q-294 0 -486 285q-77 149 -77 285zM68 535q0 -127 71 -264 q182 -271 457 -271h23q94 0 190 34q348 172 348 505v11q0 95 -34 191q-171 348 -504 348h-12q-69 0 -136 -18t-132 -55q-271 -176 -271 -462v-19zM204 535v19q0 38 7.5 76.5t24.5 78.5l-1 -2q131 246 368 246h19q43 0 84 -9.5t84 -29.5q111 -65 171.5 -156.5t60.5 -203.5 v-19q0 -41 -9.5 -84t-29.5 -85q-66 -111 -157.5 -171t-203.5 -60h-19q-73 0 -155 33l3 -1q-247 131 -247 368zM381 261l21 -21h18q33 0 74 18q53 35 53 151v94h124v-242l21 -21h124l21 21v449q0 131 -161 131h-274l-21 -21v-559zM547 650v44h124v-44h-124z" />
<glyph unicode="A" horiz-adv-x="1332" d="M36 25v1249l61 61h4l197 197h713q206 0 285 -242v-1064l-197 -197v-4l-60 -60h-309l-60 60v511h-4v-80q0 -120 -74 -194l-174 -174q-32 -43 -83 -73t-123 -50h-115zM71 40l41 -40h95q227 60 227 256v315h271v-531l40 -40h279l40 40v1046q-70 214 -253 214h-699l-41 -40 v-1220zM434 890v92h271v-92h-271z" />
<glyph unicode="B" horiz-adv-x="1329" d="M35 250v1025l60 60h4l197 197h692q218 0 298 -226l8 -103q0 -108 -46 -185l46 -46v-746l-197 -197v-4l-60 -60h-696q-109 0 -184.5 56.5t-117.5 172.5zM70 251l4 -50q71 -201 267 -201h681l40 40v718l-40 41h-28q68 76 68 203l-8 98q-71 200 -266 200h-678l-40 -40v-1009 zM429 315v256h271v-256h-271zM429 890v92h271v-92h-271z" />
<glyph unicode="C" horiz-adv-x="1327" d="M34 253v791q0 144 114 227l166 166q55 54 143 86l60 9h488q199 0 280 -226l8 -89v-159l-58 -59l-139 -139v-3l-60 -61h-312l-60 61v90h-4v-400h111l154 154h310l58 -58v-417l-197 -197v-4l-60 -60h-696q-229 0 -303 239zM69 254l3 -42q65 -212 268 -212h681l40 40v389 l-40 40h-282l-40 -40v-114h-271v667h271v-110l40 -41h282l40 41v144l-8 84q-72 200 -248 200h-483l-59 -9q-194 -71 -194 -247v-790z" />
<glyph unicode="D" horiz-adv-x="1328" d="M35 25v1250l60 60h4l197 197h710q185 0 271 -198q9 -26 13 -52t4 -53v-765q0 -62 -20.5 -112t-58.5 -88l-173 -173q-56 -76 -168 -114q-17 -5 -35 -8.5t-41 -3.5h-703zM70 40l40 -40h688q20 0 35.5 2.5t29.5 7.5q95 32 147 96t52 158v765q0 26 -3 49t-11 44 q-76 178 -242 178h-696l-40 -40v-1220zM429 315v667h271v-667h-271zM661 547h4v400h-4v-400z" />
<glyph unicode="E" horiz-adv-x="1328" d="M35 271v451l47 47q-23 37 -39 84l-8 93v329l60 60h4l197 197h695q107 0 180.5 -56.5t109.5 -160.5l1 1q12 -32 12 -76v-135l-197 -197v-4l-60 -60h-91v-61l-197 -197v-4l-35 -35h47l169 169h306l58 -59v-431l-197 -197v-4l-60 -60h-693q-218 0 -301 220zM70 272l8 -79 q74 -193 266 -193h678l40 40v403l-40 41h-278l-41 -41v-128h-271v242h242l40 40v238l-40 40h-242v107h271v-63l41 -40h278l40 40v121q0 40 -10 64q-32 94 -98 145t-163 51h-681l-40 -40v-313l8 -87q13 -39 30 -69l-12 -12h20q3 -5 6.5 -10t6.5 -10l-6 -12h-13l-40 -40v-435z M134 747l1 1v-1h-1z" />
<glyph unicode="F" horiz-adv-x="1322" d="M34 249v220q0 137 110 221q-26 23 -48 52t-39 64q-11 23 -17 49.5t-6 52.5v367l60 60h4l197 197h692q112 0 185 -56.5t113 -169.5l8 -89v-112l-197 -197v-4l-60 -60h-94v-61l-197 -197v-4l-60 -60h-25v-296l-197 -197v-4l-61 -60h-62q-106 0 -177 49t-113 146 q-9 23 -12.5 44.5t-3.5 44.5zM69 249q0 -19 3 -37.5t11 -38.5q37 -86 100 -129.5t157 -43.5h47l41 40v517h242l40 40v238l-40 40h-242v107h271v-63l40 -40h282l40 40v97l-8 84q-35 100 -100.5 150t-165.5 50h-678l-40 -40v-352q0 -47 20 -87v1q44 -93 117 -133 q-137 -77 -137 -220v-220z" />
<glyph unicode="G" horiz-adv-x="1333" d="M35 282v993l60 60h4l197 197h695q209 0 290 -200q9 -34 13 -71t4 -79v-62l-52 -52l52 -53v-789l-197 -197v-4l-60 -60h-696q-222 0 -302 229zM70 283l8 -82q70 -201 267 -201h681l40 40v761l-40 41h-509l-41 -41v-212l41 -40h186v-234h-271v667h271v-48l41 -40h282l40 40 v48q0 39 -3.5 73t-11.5 64q-73 181 -260 181h-681l-40 -40v-977z" />
<glyph unicode="H" horiz-adv-x="1329" d="M35 25v1250l60 60h4l197 197h306l59 -58v-352h4v153l60 60h4l197 197h80q198 0 281 -224l7 -57v-1025l-197 -197v-4l-60 -60h-312l-60 60v511h-4v-94q0 -105 -75 -180l-172 -172q-46 -61 -131 -103q-26 -12 -50 -17t-50 -5h-88zM70 40l40 -40h73q21 0 41.5 4t43.5 15 q161 80 161 223v329h271v-531l40 -40h282l40 40v1007l-7 55q-74 198 -249 198h-66l-40 -40v-370h-271v370l-41 40h-278l-40 -40v-1220z" />
<glyph unicode="I" horiz-adv-x="698" d="M34 25v1249l61 61h4l197 197h310l58 -58v-999q0 -134 -83 -217l-169 -169q-50 -68 -141 -107q-45 -17 -88 -17h-88zM69 40l41 -40h73q36 0 75 15q174 74 174 260v985l-40 40h-282l-41 -40v-1220z" />
<glyph unicode="J" horiz-adv-x="1322" d="M29 25v389l60 61h4l197 197h310l58 -59v-66h1v728l60 60h4l197 197h310l58 -58v-1014q0 -124 -76 -200l-177 -177q-54 -69 -160 -107l-1 2q-18 -6 -36.5 -9.5t-37.5 -3.5h-711zM64 40l40 -40h696q21 0 38 3.5t31 8.5l-3 -2q190 67 190 250v1000l-40 40h-282l-40 -40v-945 h-268v84l-40 41h-282l-40 -41v-359z" />
<glyph unicode="K" horiz-adv-x="1459" d="M35 25v1250l60 60h4l197 197h310l58 -58v-352h4v116q0 50 45 77l182 182q33 33 105 39h6q175 0 265 -180q23 -46 23 -101v-351l-46 -46q22 -38 42 -84l4 -58v-191h74l58 -58v-241l-197 -197v-4l-60 -60h-205q-177 0 -269 169q-13 27 -20 54.5t-7 56.5v291h-4v-80 q0 -116 -76 -192l-171 -171q-56 -77 -176 -121l-58 -7h-88zM70 40l40 -40h69l55 7q198 73 198 249v315h271v-326q0 -23 6.5 -47t17.5 -48q81 -150 237 -150h190l40 40v213l-40 40h-92v222l-4 51q-14 34 -29.5 61.5t-33.5 50.5h27l40 40v337q0 47 -20 87q-81 162 -236 162h-5 q-49 -4 -73.5 -21.5t-24.5 -44.5v-348h-271v370l-40 40h-282l-40 -40v-1220z" />
<glyph unicode="L" horiz-adv-x="1225" d="M35 25v1249l61 61h4l197 197h310l58 -58v-923h473l58 -59v-43q0 -106 -77 -183l-170 -170q-56 -75 -169 -123l-79 -8h-605zM70 40l41 -40h587l74 8q192 83 192 241v29l-40 41h-491v941l-40 40h-282l-41 -40v-1220z" />
<glyph unicode="M" horiz-adv-x="1716" d="M34 -35v96q16 274 31.5 500.5t27.5 393.5t20.5 270.5t12.5 131.5h6l197 197h504q67 0 97 -120l110 110q10 10 20 10h447q46 0 78.5 -130t48.5 -392q6 -72 12 -142t12 -142t12 -142.5t12 -141.5q0 -113 -76 -189l-170 -170q-60 -83 -192 -128l-72 -8q-40 0 -76 160 l-134 -134q-2 -4 -2 -8h-331q-43 0 -78 76l-91 -91q0 -2 -0.5 -3.5t-0.5 -3.5h-425zM69 0h359q5 36 14.5 182t23.5 405q17 -81 33 -159t32 -153v2q43 -255 98 -255h302q32 151 65.5 310.5t67.5 320.5q55 -649 105 -649l69 8q212 72 212 249q-12 143 -24 284t-24 284v-1 q-30 494 -95 494h-447q-40 0 -115 -394l-29 194l1 -3q-19 203 -84 203h-476q-4 -28 -12 -126t-19.5 -259t-26 -382t-30.5 -495v-60zM1363 1295q2 -5 3 -8.5t3 -8.5q-2 5 -3 8.5t-3 8.5z" />
<glyph unicode="N" horiz-adv-x="1391" d="M35 25v1250l61 60h3l139 139l59 58h310l58 -58v-45q158 49 246.5 75.5t111.5 31.5h27q244 0 303 -258l4 -53v-754q0 -129 -80 -211l-172 -172q-57 -77 -174 -118l-46 -5h-97l-60 60v890q-35 -11 -63 -18v-671l-197 -197v-4l-60 -60h-312zM70 40l41 -40h282l40 40v826 q1 3 20 8.5t58.5 16.5t101.5 28t150 43v-922l40 -40h81l41 5q200 69 200 266v753l-4 51q-52 229 -271 229h-22q-23 -4 -121.5 -34t-273.5 -85v75l-40 40h-282l-41 -40v-1220z" />
<glyph unicode="O" horiz-adv-x="1330" d="M35 249v1026l60 60h4l197 197h706q198 0 285 -228l8 -120v-958l-197 -197v-4l-61 -60h-711q-184 0 -273 194q-10 24 -14 46t-4 44zM70 249q0 -19 3.5 -37.5t11.5 -38.5q78 -173 241 -173h696l41 40v943l-8 115q-76 202 -253 202h-692l-40 -40v-1011zM429 315v667h271 v-667h-271zM661 547h4v400h-4v-400z" />
<glyph unicode="P" horiz-adv-x="1327" d="M35 243v1032l60 60h4l197 197h706q204 0 284 -231l9 -115v-382q0 -165 -88 -253l-172 -172q-53 -71 -148 -103l-34 -7h-192v-43l-197 -197v-4l-60 -60h-78q-105 0 -175.5 58.5t-111.5 173.5zM70 244l4 -40q73 -204 252 -204h63l40 40v264h421l29 6q184 62 184 294v379 l-9 113q-71 204 -252 204h-692l-40 -40v-1016zM429 619v363h271v-363h-271zM661 851h4v96h-4v-96z" />
<glyph unicode="Q" horiz-adv-x="1415" d="M34 278v751q0 156 108 240l175 175q62 62 175 92h743l58 -58v-879q0 -48 -15 -97t-44 -100q18 -17 38.5 -37t40.5 -39.5t38 -36.5t31 -29l-198 -198q0 -2 2 -2l-95 -95h-307q-5 4 -9.5 8t-7.5 6q-4 3 -6 5q-70 -19 -121 -19l-29 4h-282q-202 0 -277 204q-9 21 -13.5 48 t-4.5 57zM69 278q0 -55 11 -80q65 -194 249 -194h282l32 -4q45 0 125 23q5 -3 9 -7q4 -3 9 -7.5t10 -8.5h280l60 60q-14 13 -31.5 30t-36 35t-38 36.5t-36.5 35.5q67 107 67 202v865l-40 40h-725q-227 -60 -227 -275v-751zM431 319v666h271v-556h-135l-52 -53 q8 -11 18 -25.5t22 -31.5h-124zM663 571l4 4v375h-4v-379z" />
<glyph unicode="R" horiz-adv-x="1385" d="M34 249v1025l61 61h4l197 197h706q206 0 284 -232l8 -83v-251q0 -135 -65 -216l20 -20v-205h44l59 -58v-241l-197 -197v-4l-61 -60h-154q-236 0 -312 227v2l-165 -165v-4l-60 -60h-48q-106 0 -182 49t-121 145q-18 52 -18 90zM69 249q0 -34 16 -79q79 -170 270 -170h33 l40 40v308h226v-82l9 -68q67 -198 277 -198h139l41 40v213l-41 40h-62v223l-33 33q78 75 78 217v250l-8 79q-69 205 -252 205h-692l-41 -40v-1011zM428 663v322h271v-322h-271zM660 895h4v55h-4v-55z" />
<glyph unicode="S" horiz-adv-x="1326" d="M33 249v114l60 60h4l80 80h-84l-60 61v711l60 60h4l197 197h707q206 0 284 -232l8 -83v-104l-100 -100q42 -36 70 -92q30 -72 30 -153v-542l-197 -197v-4l-61 -60h-681q-106 0 -182 49t-121 145q-18 52 -18 90zM68 249q0 -34 16 -79q79 -170 270 -170h666l41 40v528 q0 75 -27 140q-74 149 -285 149h-322v128h271v-58l40 -41h282l41 41v89l-8 79q-69 205 -252 205h-693l-40 -40v-681l40 -41h590v-219h-271v29l-40 40h-279l-40 -40v-99z" />
<glyph unicode="T" horiz-adv-x="1350" d="M31 1011v267l61 61h4l197 197h969l58 -58v-266l-58 -59l-139 -139v-3l-60 -61h-72v-494q0 -116 -75 -191l-176 -176q-58 -74 -174 -116l-74 -8h-71l-60 60v925h-269zM66 1026l41 -41h289v-945l40 -40h53l70 8q200 72 200 248v729h289l40 41v238l-40 40h-941l-41 -40v-238 z" />
<glyph unicode="U" horiz-adv-x="1388" d="M33 263v770q0 153 108 236l173 173q60 60 167 90h123l58 -58v-894q16 4 31.5 9t31.5 10v676l60 60h4l197 197h310l58 -58v-1248l-197 -197v-4l-60 -60h-312l-60 60v42q-329 -102 -364 -102h-48q-180 0 -272 220zM68 266l8 -72q80 -194 237 -194h48q32 0 399 115v-75 l40 -40h282l40 40v1220l-40 40h-282l-40 -40v-820q-46 -14 -87.5 -27t-81 -25.5t-79.5 -25t-82 -25.5v923l-40 40h-104q-218 -62 -218 -267v-767z" />
<glyph unicode="V" horiz-adv-x="1361" d="M32 1335h7l197 197h355q53 0 95 -115l115 115h219q210 0 293 -209l16 -77l-207 -1030l-196 -196l-1 -5l-50 -50h-465q-48 0 -77 50t-46 150h2q-56 241 -101.5 445.5t-79 358t-53 248.5t-23.5 118zM74 1300q4 -23 22.5 -111t50 -234.5t76.5 -346t101 -444.5l-1 3 q14 -84 35 -125.5t52 -41.5h450l33 33l203 1011l-14 70q-74 186 -262 186h-205l-40 -40v-209l40 -40h91q-24 -126 -45.5 -236t-43.5 -221q-31 133 -61 259t-60 247l1 -1q-48 241 -106 241h-317z" />
<glyph unicode="W" horiz-adv-x="1717" d="M33 1077q0 113 103 195l172 172q29 29 68 53t90 45l167 16l11 -147l121 121h320q50 0 88 -105l76 76l54 51h320l61 -61l-82 -1271l-51 -54l-146 -146v-1l-53 -56h-470q-43 0 -75 80l-73 -73q-1 -2 -1 -7h-561l-59 56zM68 1078l79 -1040l39 -38h518l69 385q2 -12 3.5 -23 t3.5 -22l-1 1q21 -171 46 -256t57 -85h454l35 36l80 1244l-42 42h-293l-36 -35q-8 -139 -15 -280.5t-15 -284.5q-14 71 -28 140.5t-28 141.5v-2q-26 150 -52 224t-57 74h-295q-10 -36 -46 -196t-91 -425l-49 644l-130 -13q-206 -84 -206 -232z" />
<glyph unicode="X" horiz-adv-x="1467" d="M32 1262l74 77h4l197 197h296q32 0 103 -114l114 114h193q231 0 309 -100l24 -61v-32q0 -29 -29.5 -112t-82.5 -210q-6 -15 -14 -32.5t-13 -30.5h1q-6 -14 -10.5 -25.5t-9 -22.5t-10 -23.5t-11.5 -28.5q135 -288 201 -435.5t66 -163.5v-91l-197 -197v-6h-350 q-48 0 -169 225q-2 -5 -4.5 -11t-4.5 -11l-194 -194q-2 -3 -4 -9q-374 0 -374 189v11q0 61 169 447q0 2 1 3q-2 -2 0.5 3l3.5 7q0 1 1.5 3.5t2.5 4.5q0 1 2 5.5t4 10.5q-17 37 -36 75t-36 76q-16 32 -31.5 66.5t-31.5 67.5q-15 33 -31.5 68t-33.5 70q-23 49 -46 98.5 t-43 91.5zM74 1256q33 -72 69 -148t72.5 -153.5t72.5 -154.5t70 -149q-3 -10 -5.5 -16.5t-5 -12.5t-5 -12.5t-6.5 -16.5l2 4q-166 -379 -166 -432v-11q0 -154 315 -154q38 93 80.5 196t83.5 203q196 -399 236 -399h315v59q0 20 -270 598q10 25 18.5 46l17 42t17.5 42t19 46 l-1 -1q55 131 83 208t28 103v25l-21 53q-65 83 -280 83h-179l-40 -40v-172l40 -41h61q-19 -47 -32.5 -79.5t-26.5 -64.5q-97 198 -154 297.5t-79 99.5h-282z" />
<glyph unicode="Y" horiz-adv-x="1354" d="M31 1245v94h6l197 197h347q31 0 101 -115l57 57l59 58h193q333 0 333 -182v-15q0 -39 -40 -128t-119 -229q-36 -72 -71 -142.5t-71 -142.5v-471l-197 -197v-4l-60 -60h-308l-61 60v553q-57 23 -100.5 82.5t-75.5 156.5q-190 392 -190 428zM66 1245q0 -23 187 -414 q65 -198 179 -228v-563l41 -40h278l40 40v466l145 290l-2 -3q78 138 118 224.5t40 121.5v15q0 150 -301 150h-179l-41 -40v-172l41 -41h61q-20 -47 -33 -80t-26 -65q-194 398 -233 398h-315v-59z" />
<glyph unicode="Z" horiz-adv-x="1327" d="M34 25v554q0 159 114 245l126 126h-180l-60 61v268l60 60h4l197 197h941l58 -58v-498q0 -100 -77 -177l-168 -168q-35 -47 -91 -84h242q44 0 69 -24.5t25 -73.5q0 -110 -76 -185l-169 -169q-55 -78 -179 -126l-125 -8h-651zM69 40l40 -40h635l117 8q201 79 201 245 q0 33 -16.5 49.5t-45.5 16.5h-568v223h402l54 8q174 87 174 230v484l-40 40h-913l-40 -40v-238l40 -41h590v-128h-335l-94 -8q-201 -71 -201 -270v-539z" />
<glyph unicode="[" horiz-adv-x="569" />
<glyph unicode="\" horiz-adv-x="1094" d="M29 1402l9 3l195 195l265 91l567 -1605l-198 -197l2 -5l-271 -93zM74 1380l546 -1545l204 71l-546 1545z" />
<glyph unicode="]" horiz-adv-x="569" />
<glyph unicode="^" horiz-adv-x="929" d="M32 24v170l59 59h4l197 197h547l58 -57v-168l-197 -197v-4l-60 -59h-549zM67 39l39 -39h519l40 39v140l-40 39h-519l-39 -39v-140z" />
<glyph unicode="_" horiz-adv-x="1139" />
<glyph unicode="`" horiz-adv-x="800" d="M30 382h9l197 197h176q89 -5 146 -19t83 -40l6 2q6 -11 13.5 -25.5t16 -29.5t16.5 -30.5t15 -28.5q14 -27 32 -59t30 -54q-5 -13 -13 -24.5t-19 -22.5l-180 -180q-26 -37 -77 -65.5t-129 -52.5zM100 347l265 -356q74 23 115.5 47.5t54.5 54.5q-24 45 -54.5 100.5 t-54.5 100.5l2 -8q-26 50 -217 61h-111z" />
<glyph unicode="a" horiz-adv-x="1305" d="M34 24v1223l59 59h4l197 197h698q199 0 279 -237v-1041l-197 -197v-4l-59 -59h-302l-60 59v387q-10 -90 -71 -151l-172 -172q-62 -86 -204 -123h-113zM69 39l39 -39h93q222 58 222 251v308h265v-520l40 -39h272l39 39v1023q-70 209 -247 209h-684l-39 -39v-1193zM423 870 v90h265v-90h-265z" />
<glyph unicode="b" horiz-adv-x="1305" d="M34 244v1003l59 59h4l197 197h677q109 0 181 -55t111 -167l8 -101q0 -107 -45 -180l45 -45v-730l-197 -197v-4l-59 -59h-681q-215 0 -296 224zM69 245l4 -49q70 -196 261 -196h666l39 39v702l-39 40h-28q67 73 67 198l-8 96q-69 196 -260 196h-663l-39 -39v-987zM420 308 v251h265v-251h-265zM420 870v90h265v-90h-265z" />
<glyph unicode="c" horiz-adv-x="1303" d="M33 247v773q0 141 111 222l168 168q53 53 140 84l59 9h477q97 0 166 -54.5t108 -167.5l8 -86v-157l-197 -197v-4l-59 -59h-306l-57 57v-295h108l150 150h304l57 -57v-408l-197 -197v-4l-59 -59h-681q-226 0 -296 234zM68 248l4 -41q63 -207 261 -207h666l39 39v380 l-39 39h-276l-39 -39v-111h-265v652h265v-108l39 -39h276l39 39v142l-8 81q-35 100 -95.5 148t-146.5 48h-472l-58 -9q-190 -69 -190 -242v-772z" />
<glyph unicode="d" horiz-adv-x="1304" d="M34 24v1223l59 59h4l197 197h695q182 0 265 -195q17 -47 17 -102v-748q0 -118 -77 -195l-172 -172q-57 -76 -166 -114q-16 -5 -34 -8.5t-41 -3.5h-688zM69 39l39 -39h673q35 0 63 10q94 32 144.5 94.5t50.5 153.5v748q0 25 -3 48t-11 43q-74 174 -236 174h-681l-39 -39 v-1193zM420 308v652h265v-652h-265z" />
<glyph unicode="e" horiz-adv-x="1304" d="M34 264v442l46 46q-23 37 -38 83l-8 90v322l59 59h4l197 197h680q106 0 177.5 -55.5t106.5 -157.5l1 1q6 -16 9 -33.5t3 -40.5v-132l-57 -58l-140 -140v-3l-59 -60h-84v-54l-57 -58l-140 -140v-3l-29 -29h44l165 165h300l57 -58v-422l-197 -197v-4l-59 -59h-677 q-107 0 -180.5 54.5t-115.5 161.5zM69 266l8 -77q73 -189 261 -189h662l39 39v394l-39 40h-272l-40 -40v-125h-265v236h237l39 40v232l-39 40h-237v104h265v-61l40 -40h272l39 40v118q0 38 -10 62q-32 92 -96 142t-159 50h-666l-39 -39v-306l8 -85q6 -19 13.5 -35.5 t15.5 -31.5l-12 -12h20q3 -5 6.5 -10t6.5 -10l-6 -12h-13l-39 -39v-425zM132 730l2 2q1 -1 1.5 -1t1.5 -1h-5z" />
<glyph unicode="f" horiz-adv-x="1298" d="M33 243v215q0 61 30 118.5t76 97.5q-23 21 -45.5 51.5t-36.5 61.5q-24 46 -24 101v359l59 59h4l197 197h677q216 0 292 -223l8 -85v-110l-57 -58l-140 -140v-3l-59 -60h-87v-54l-197 -197v-4l-60 -60h-19v-284l-197 -197v-4l-59 -59h-62q-103 0 -172.5 48t-111.5 143 q-8 21 -12 42.5t-4 44.5zM68 243q0 -35 14 -74q72 -169 251 -169h47l39 39v505h236l40 40v232l-40 40h-236v104h265v-61l39 -40h276l39 40v95l-8 81q-67 196 -260 196h-663l-39 -39v-344q0 -46 20 -85v1q42 -91 114 -131q-68 -38 -101 -92t-33 -123v-215z" />
<glyph unicode="g" horiz-adv-x="1309" d="M34 276v971l59 59h4l197 197h680q103 0 173 -49t112 -148q16 -67 16 -146v-61l-51 -51l51 -51v-772l-197 -197v-4l-59 -59h-681q-216 0 -296 224zM69 277l8 -81q69 -196 261 -196h666l39 39v744l-39 40h-498l-39 -40v-207l39 -40h183v-228h-265v652h265v-47l39 -39h276 l39 39v47q0 38 -3 71t-11 63q-74 177 -255 177h-666l-39 -39v-955z" />
<glyph unicode="h" horiz-adv-x="1305" d="M34 24v1223l59 59h4l197 197h301l57 -57v-197l57 57h4l197 197h79q194 0 275 -220l7 -56v-1002l-197 -197v-4l-59 -59h-306l-59 59v377q-11 -80 -71 -140l-170 -170q-45 -62 -131 -104q-26 -12 -50 -17t-48 -5h-87zM69 39l39 -39h72q20 0 40.5 4t42.5 15q157 78 157 217 v323h265v-520l39 -39h276l39 39v984l-7 54q-70 194 -243 194h-65l-39 -39v-362h-265v362l-39 39h-273l-39 -39v-1193z" />
<glyph unicode="i" horiz-adv-x="687" d="M33 24v1223l59 59h4l197 197h304l57 -57v-977q0 -131 -80 -213l-173 -173q-48 -64 -136 -102q-42 -16 -86 -16h-87zM68 39l39 -39h72q17 0 35.5 3t37.5 11q170 74 170 255v963l-39 39h-276l-39 -39v-1193z" />
<glyph unicode="j" horiz-adv-x="1298" d="M28 24v381l59 60h4l197 197h304l52 -53v638l59 59h4l197 197h304l57 -57v-992q0 -120 -75 -195l-173 -173q-53 -72 -161 -110v1q-36 -12 -73 -12h-696zM63 39l39 -39h681q40 0 67 12l-3 -2q186 66 186 244v978l-39 39h-276l-39 -39v-924h-262v82l-39 40h-276l-39 -40 v-351z" />
<glyph unicode="k" horiz-adv-x="1432" d="M34 24v1223l59 59h4l197 197h304l57 -57v-216q7 36 44 57l181 181q32 32 101 39h8q172 0 259 -177l-1 -1q13 -23 18.5 -47.5t5.5 -50.5v-343l-44 -45q11 -18 21 -38.5t19 -43.5l4 -57v-186h72l57 -57v-236l-197 -197v-4l-59 -59h-202q-172 0 -261 166q-28 53 -28 109v174 q-10 -89 -73 -152l-172 -172q-55 -74 -172 -118l-57 -7h-86zM69 39l39 -39h67l54 7q194 72 194 244v308h265v-319q0 -47 24 -93q78 -147 230 -147h187l39 39v208l-39 39h-90v217l-4 50q-25 64 -62 109h27l39 40v329q0 46 -20 85q-78 159 -230 159h-5q-48 -5 -72 -22t-24 -43 v-340h-265v362l-39 39h-276l-39 -39v-1193z" />
<glyph unicode="l" horiz-adv-x="1203" d="M34 24v1222l60 60h4l197 197h303l58 -57v-903h461l58 -57v-43q0 -103 -75 -178l-173 -173q-54 -71 -164 -119l-78 -8h-591zM69 39l40 -39h573l73 8q188 82 188 235v29l-40 39h-479v921l-40 39h-275l-40 -39v-1193z" />
<glyph unicode="m" horiz-adv-x="1682" d="M33 -35v95q16 268 30.5 489t26.5 385t20.5 265t12.5 129h6l197 197h493q65 0 95 -117l106 106q11 11 21 11h437q22 0 41.5 -34.5t35 -100.5t28 -161.5t20.5 -216.5q5 -68 11 -138t12 -139q6 -70 11.5 -139t11.5 -138q0 -112 -74 -186l-171 -171q-59 -82 -189 -124l-69 -8 q-41 0 -75 155l-131 -130q0 -2 -0.5 -4t-0.5 -4h-324q-43 0 -76 74l-88 -88q-1 -2 -1 -7h-417zM68 0h351q4 35 13.5 178.5t23.5 395.5q17 -79 32 -155t32 -150v1q20 -125 44.5 -187t50.5 -62h295q31 148 64 304t67 313q52 -634 102 -634l67 8q207 69 207 243 q-11 139 -23 277.5t-23 277.5v-1q-30 484 -93 484h-437q-39 0 -113 -386l-28 190l1 -3q-20 199 -82 199h-465q-4 -28 -11.5 -124t-19 -253.5t-25.5 -373t-30 -483.5v-59z" />
<glyph unicode="n" horiz-adv-x="1365" d="M34 24v1223l59 59h4l197 197h304l57 -57v-43q151 48 239 73.5t111 30.5h27q237 0 296 -253l4 -52v-737q0 -129 -79 -208l-173 -173q-55 -74 -169 -115l-45 -4h-96l-59 59v870q-15 -5 -28.5 -8.5t-27.5 -7.5v-653l-197 -197v-4l-59 -59h-306zM69 39l39 -39h276l39 39v808 q2 2 20.5 7.5t57 16.5t99 28t146.5 42v-902l39 -39h80l39 4q196 69 196 261v736l-4 50q-51 224 -264 224h-22q-22 -4 -119 -33.5t-268 -83.5v74l-39 39h-276l-39 -39v-1193z" />
<glyph unicode="o" horiz-adv-x="1306" d="M34 243v1003l60 60h4l197 197h690q196 0 279 -224l8 -118v-936l-197 -197v-4l-60 -59h-695q-182 0 -269 190q-17 45 -17 88zM69 243q0 -37 15 -74q76 -169 236 -169h680l40 39v921l-8 113q-74 198 -247 198h-676l-40 -39v-989zM420 308v652h265v-652h-265z" />
<glyph unicode="p" horiz-adv-x="1303" d="M34 238v1008l60 60h4l197 197h690q102 0 170.5 -56.5t108.5 -169.5l8 -116v-370q0 -162 -86 -248l-172 -172q-51 -70 -145 -102l-34 -7h-183v-37l-197 -197v-4l-59 -59h-76q-201 0 -281 229zM69 239l5 -39q69 -200 246 -200h61l39 39v258h412l29 6q179 60 179 288v369 l-8 111q-71 200 -247 200h-676l-40 -39v-993zM420 605v355h265v-355h-265z" />
<glyph unicode="q" horiz-adv-x="1388" d="M33 272v734q0 154 108 237l173 173q61 61 172 91h726l58 -58v-859q0 -45 -15 -94.5t-42 -97.5q17 -17 37 -36.5t39.5 -38.5t37 -36t29.5 -29l-198 -198q0 -2 2 -2l-93 -93h-303l-12 12q-4 4 -8 7q-70 -19 -118 -19l-29 4h-275q-196 0 -271 198l-2 6l-2 6q-2 4 -4 12 q-5 18 -7.5 38t-2.5 43zM68 272q0 -53 11 -80l-2 7q63 -195 245 -195h275l32 -4q21 0 52.5 5.5t69.5 16.5q5 -3 9 -7q4 -3 8.5 -7t9.5 -8h274l58 58q-13 13 -30 29.5t-35.5 34.5l-37 36t-35.5 34q32 52 49 101t17 97v845l-40 40h-708q-222 -60 -222 -269v-734zM422 311v652 h265v-544h-133l-51 -51q8 -11 18.5 -25.5t21.5 -31.5h-121z" />
<glyph unicode="r" horiz-adv-x="1361" d="M34 243v1004l59 59h4l197 197h691q103 0 171.5 -56.5t106.5 -171.5l8 -80v-247q0 -129 -63 -210l19 -19v-201h43l58 -57v-236l-197 -197v-4l-60 -59h-151q-230 0 -306 222l-159 -159v-4l-60 -59h-47q-208 0 -297 190q-9 26 -13 47.5t-4 40.5zM69 243q0 -16 3.5 -35 t11.5 -42q77 -166 264 -166h32l40 39v301h221v-80l8 -67q66 -193 271 -193h136l40 39v208l-40 39h-61v219l-32 31q76 73 76 212v246l-8 77q-68 200 -246 200h-677l-39 -39v-989zM420 648v315h265v-315h-265z" />
<glyph unicode="s" horiz-adv-x="1303" d="M33 243v112l59 60h4l76 76h-80l-59 60v696l59 59h4l197 197h691q103 0 171.5 -56.5t106.5 -171.5l8 -80v-103l-98 -98q42 -36 69 -89q29 -72 29 -150v-530l-197 -197v-4l-60 -59h-666q-208 0 -297 190q-9 26 -13 47.5t-4 40.5zM68 243q0 -16 3.5 -35t11.5 -42 q77 -166 264 -166h651l40 39v516q0 73 -26 137q-72 146 -279 146h-315v125h265v-57l40 -40h275l40 40v88l-8 77q-68 200 -246 200h-677l-39 -39v-666l39 -40h576v-215h-265v29l-39 40h-272l-39 -40v-97z" />
<glyph unicode="t" horiz-adv-x="1327" d="M31 988v262l60 60h4l197 197h948l57 -58v-260l-57 -58l-140 -140v-3l-59 -60h-66v-477q0 -115 -74 -188l-173 -173q-55 -75 -173 -117l-73 -8h-69l-59 59v904h-263zM66 1003l40 -40h283v-924l39 -39h51l69 8q195 70 195 243v712h283l39 40v232l-39 40h-920l-40 -40v-232z " />
<glyph unicode="u" horiz-adv-x="1365" d="M33 257v753q0 155 112 236l168 168q59 59 164 89h120l58 -57v-874q14 4 27.5 8.5t27.5 9.5v657l59 59h4l197 197h304l57 -57v-1221l-197 -197v-4l-59 -59h-306l-59 59v40q-318 -99 -355 -99h-47q-179 0 -267 216zM68 260l8 -70q78 -190 232 -190h47q28 0 390 113v-74 l39 -39h276l39 39v1193l-39 39h-276l-39 -39v-802q-45 -14 -85 -26.5t-79 -25t-78 -24.5t-80 -25v903l-40 39h-101q-214 -60 -214 -261v-750z" />
<glyph unicode="v" horiz-adv-x="1338" d="M32 1306h7l197 197h348q53 0 94 -110l53 53l58 57h214q205 0 287 -205l16 -76l-202 -1007l-196 -196l-1 -5l-49 -49h-456q-46 0 -75 49t-46 146h2q-54 236 -98.5 436t-77 350.5t-52 244t-23.5 115.5zM74 1271q4 -22 22 -108.5t49 -229.5t74.5 -338.5t98.5 -434.5l-1 3 q29 -163 85 -163h441l32 32l198 988l-14 69q-73 182 -256 182h-200l-40 -39v-204l40 -40h89q-23 -123 -44.5 -230t-43.5 -216q-29 129 -58.5 252.5t-59.5 242.5l1 -2q-47 236 -103 236h-310z" />
<glyph unicode="w" horiz-adv-x="1686" d="M33 1053q0 113 103 192l170 170q54 54 155 97l166 16l10 -141l116 116h314q48 0 86 -103l125 125h315l60 -63l-80 -1242l-197 -197v-4l-54 -54h-459q-45 0 -75 75l-68 -68q-1 -2 -1 -7h-551l-57 57zM68 1054l77 -1016l38 -38h506l67 376l4 -22l4 -22l-1 1 q20 -168 44 -250.5t56 -82.5h444l35 35l78 1216l-41 42h-287l-35 -35q-8 -136 -15 -274t-14 -279q-14 70 -27.5 138.5t-27.5 137.5v-2q-50 292 -106 292h-289q-5 -18 -16 -66.5t-28.5 -125.5t-39.5 -181.5t-50 -233.5l-47 629l-128 -12q-201 -84 -201 -227z" />
<glyph unicode="x" horiz-adv-x="1443" d="M32 1235l75 75h4l197 197h289q32 0 100 -112l112 112h189q224 0 302 -99l24 -59v-32q0 -28 -29 -109t-81 -205q-13 -32 -24.5 -59.5t-23.5 -56.5q-5 -14 -8 -21.5l-9 -22.5q130 -279 195.5 -424.5t65.5 -161.5v-89l-197 -197v-6h-343q-45 0 -163 215q-4 -8 -5 -12 l-195 -194l-3 -9q-367 0 -367 185v11q0 65 164 436q2 7 4 12.5t4 10.5q1 4 4 7q1 1 1 2t2 6q-31 66 -65 137t-67 142q-21 44 -42.5 90t-41.5 88q-7 15 -16 34t-18 38.5t-18 37.5t-16 33zM75 1228q33 -70 68 -145t71 -150.5t71 -150.5t68 -146q-7 -19 -10.5 -28t-10.5 -28 l2 4q-162 -369 -162 -423v-11q0 -150 308 -150q37 91 78.5 191.5t81.5 198.5q191 -390 230 -390h308v57q0 12 -66 157.5t-198 427.5q10 24 18.5 45t17 41t17 41.5t17.5 45.5v-1q54 128 81 203t27 100v25l-21 51q-64 82 -273 82h-175l-40 -40v-168l40 -39h60 q-19 -47 -32 -78.5t-26 -62.5q-95 194 -151 291t-77 97h-275z" />
<glyph unicode="y" horiz-adv-x="1331" d="M31 1217v93h6l197 197h340q30 0 100 -112l112 112h189q326 0 326 -179v-14q0 -77 -160 -359q-17 -35 -34 -68t-33 -65q-17 -35 -33 -66.5t-34 -68.5v-462l-197 -197v-4l-59 -59h-303l-59 59v540q-57 23 -98.5 81t-73.5 153q-93 194 -139.5 298t-46.5 121zM66 1217 q0 -13 46 -113.5t137 -291.5q63 -193 175 -223v-550l39 -39h273l39 39v456q36 74 70.5 141.5t70.5 141.5l-1 -3q154 270 154 339v14q0 147 -294 147h-175l-40 -40v-168l40 -39h60q-20 -47 -32.5 -79t-25.5 -64q-190 390 -228 390h-308v-58z" />
<glyph unicode="z" horiz-adv-x="1303" d="M33 24v542q0 155 112 240l122 122h-175l-59 60v261l59 61h4l197 197h919l58 -58v-486q0 -99 -76 -175l-168 -168q-32 -43 -81 -77h232q44 0 68.5 -24t24.5 -72q0 -107 -74 -181l-172 -172q-57 -75 -173 -121l-123 -8h-636zM68 39l39 -39h620l115 8q196 78 196 239 q0 32 -16 48t-45 16h-555v219h393l53 8q170 84 170 225v472l-40 40h-891l-39 -40v-232l39 -40h576v-125h-327l-92 -8q-196 -69 -196 -264v-527z" />
<glyph unicode="{" horiz-adv-x="684" />
<glyph unicode="|" horiz-adv-x="532" />
<glyph unicode="}" horiz-adv-x="684" />
<glyph unicode="~" horiz-adv-x="932" d="M32 111v234l6 -3l197 198q192 -82 222 -82q15 0 147 38l38 5q113 0 259 -97v-179l-197 -197v-4l-80 -80q-74 40 -121 59t-67 19h-25q-54 -11 -92 -16t-55 -5h-62q-170 18 -170 110zM67 111q0 -60 138 -75h59q36 0 146 21h26q26 0 71 -17t111 -52l51 51v147 q-125 83 -224 83l-35 -5q-132 -38 -153 -38q-34 0 -190 66v-181z" />
<glyph unicode="&#xa1;" horiz-adv-x="682" />
<glyph unicode="&#xa2;" horiz-adv-x="1139" />
<glyph unicode="&#xa3;" horiz-adv-x="1139" />
<glyph unicode="&#xa4;" horiz-adv-x="1139" />
<glyph unicode="&#xa5;" horiz-adv-x="1139" />
<glyph unicode="&#xa6;" horiz-adv-x="532" />
<glyph unicode="&#xa7;" horiz-adv-x="1139" />
<glyph unicode="&#xa8;" horiz-adv-x="682" />
<glyph unicode="&#xa9;" horiz-adv-x="1509" />
<glyph unicode="&#xaa;" horiz-adv-x="758" />
<glyph unicode="&#xab;" horiz-adv-x="1139" />
<glyph unicode="&#xac;" horiz-adv-x="1196" />
<glyph unicode="&#xad;" horiz-adv-x="1164" d="M32 449v440h6l197 197h24l197 197h40.5h57t65 0.5t65 0.5t57 0.5t40.5 0.5t42.5 0.5t61.5 0.5t71 0.5t71 0.5h62h43v-409l-197 -197v-24l-197 -197v-6q-20 0 -64.5 -0.5t-94.5 -1t-96.5 -1t-69.5 -0.5h-26q-40 0 -95 -0.5t-108 -1t-95.5 -0.5h-56.5zM67 484h56.5t87 0.5 l95 1t81.5 0.5h26q23 0 64 0.5t84.5 1t82.5 1t59 0.5v6l197 197v363h-40.5h-56t-63 -0.5t-63 -0.5t-55.5 -0.5t-40 -0.5q-23 0 -66 -0.5t-90 -1t-90.5 -0.5h-65.5l-197 -197h-6v-370zM102 519v300h60.5t80 0.5t79.5 1t61 0.5q22 0 61 0.5t81 1t81 0.5h62v-299 q-20 0 -53.5 -0.5t-70.5 -1t-72.5 -1t-58.5 -0.5h-26q-26 0 -66 -0.5t-82 -1t-79 -0.5h-58z" />
<glyph unicode="&#xae;" horiz-adv-x="1509" />
<glyph unicode="&#xaf;" horiz-adv-x="1131" />
<glyph unicode="&#xb0;" horiz-adv-x="819" />
<glyph unicode="&#xb1;" horiz-adv-x="1124" />
<glyph unicode="&#xb2;" horiz-adv-x="682" />
<glyph unicode="&#xb3;" horiz-adv-x="682" />
<glyph unicode="&#xb4;" horiz-adv-x="802" d="M30 77q67 131 114 203t68 84h2l187 187q6 6 12 10q108 15 362 15l-321 -422l-183 -183l-16 -21q-81 27 -138.5 60.5t-86.5 66.5zM73 81q18 -21 61 -44.5t109 -45.5l267 353q-92 0 -164 -3.5t-123 -10.5q-14 -8 -52 -70t-98 -179z" />
<glyph unicode="&#xb5;" horiz-adv-x="1180" />
<glyph unicode="&#xb6;" horiz-adv-x="1100" />
<glyph unicode="&#xb7;" horiz-adv-x="569" />
<glyph unicode="&#xb8;" horiz-adv-x="929" d="M32 24v170l59 59h4l197 197h547l58 -57v-168l-197 -197v-4l-60 -59h-549zM67 39l39 -39h519l40 39v140l-40 39h-519l-39 -39v-140z" />
<glyph unicode="&#xb9;" horiz-adv-x="682" />
<glyph unicode="&#xba;" horiz-adv-x="748" />
<glyph unicode="&#xbb;" horiz-adv-x="1139" />
<glyph unicode="&#xbc;" horiz-adv-x="1708" />
<glyph unicode="&#xbd;" horiz-adv-x="1708" />
<glyph unicode="&#xbe;" horiz-adv-x="1708" />
<glyph unicode="&#xbf;" horiz-adv-x="1251" />
<glyph unicode="&#xc0;" d="M36 25v1249l61 61h4l197 197h713q206 0 285 -242v-1064l-197 -197v-4l-60 -60h-309l-60 60v511h-4v-80q0 -120 -74 -194l-174 -174q-32 -43 -83 -73t-123 -50h-115zM71 40l41 -40h95q227 60 227 256v315h271v-531l40 -40h279l40 40v1046q-70 214 -253 214h-699l-41 -40 v-1220zM349 1958h9l197 197h176q89 -5 146 -19t83 -40l6 2q6 -11 13.5 -25.5t16 -29.5t16.5 -30.5t15 -28.5q14 -27 32 -59t30 -54q-5 -13 -13 -24.5t-19 -22.5l-180 -180q-26 -37 -77 -65.5t-129 -52.5zM419 1923l265 -356q74 23 115.5 47.5t54.5 54.5q-24 45 -54.5 100.5 t-54.5 100.5l2 -8q-26 50 -217 61h-111zM434 890v92h271v-92h-271z" />
<glyph unicode="&#xc1;" d="M36 25v1249l61 61h4l197 197h713q206 0 285 -242v-1064l-197 -197v-4l-60 -60h-309l-60 60v511h-4v-80q0 -120 -74 -194l-174 -174q-32 -43 -83 -73t-123 -50h-115zM71 40l41 -40h95q227 60 227 256v315h271v-531l40 -40h279l40 40v1046q-70 214 -253 214h-699l-41 -40 v-1220zM434 890v92h271v-92h-271zM489 1653q67 131 114 203t68 84h2l187 187q6 6 12 10q108 15 362 15l-321 -422l-183 -183l-16 -21q-81 27 -138.5 60.5t-86.5 66.5zM532 1657q18 -21 61 -44.5t109 -45.5l267 353q-92 0 -164 -3.5t-123 -10.5q-14 -8 -52 -70t-98 -179z" />
<glyph unicode="&#xc2;" d="M36 25v1249l61 61h4l197 197h713q206 0 285 -242v-1064l-197 -197v-4l-60 -60h-309l-60 60v511h-4v-80q0 -120 -74 -194l-174 -174q-32 -43 -83 -73t-123 -50h-115zM71 40l41 -40h95q227 60 227 256v315h271v-531l40 -40h279l40 40v1046q-70 214 -253 214h-699l-41 -40 v-1220zM341 1600v170l59 59h4l197 197h547l58 -57v-168l-197 -197v-4l-60 -59h-549zM376 1615l39 -39h519l40 39v140l-40 39h-519l-39 -39v-140zM434 890v92h271v-92h-271z" />
<glyph unicode="&#xc3;" d="M36 25v1249l61 61h4l197 197h713q206 0 285 -242v-1064l-197 -197v-4l-60 -60h-309l-60 60v511h-4v-80q0 -120 -74 -194l-174 -174q-32 -43 -83 -73t-123 -50h-115zM71 40l41 -40h95q227 60 227 256v315h271v-531l40 -40h279l40 40v1046q-70 214 -253 214h-699l-41 -40 v-1220zM308 1703v234l6 -3l197 198q192 -82 222 -82q15 0 147 38l38 5q113 0 259 -97v-179l-197 -197v-4l-80 -80q-74 40 -121 59t-67 19h-25q-54 -11 -92 -16t-55 -5h-62q-170 18 -170 110zM343 1703q0 -60 138 -75h59q36 0 146 21h26q26 0 71 -17t111 -52l51 51v147 q-125 83 -224 83l-35 -5q-132 -38 -153 -38q-34 0 -190 66v-181zM434 890v92h271v-92h-271z" />
<glyph unicode="&#xc4;" d="M36 25v1249l61 61h4l197 197h713q206 0 285 -242v-1064l-197 -197v-4l-60 -60h-309l-60 60v511h-4v-80q0 -120 -74 -194l-174 -174q-32 -43 -83 -73t-123 -50h-115zM71 40l41 -40h95q227 60 227 256v315h271v-531l40 -40h279l40 40v1046q-70 214 -253 214h-699l-41 -40 v-1220zM434 890v92h271v-92h-271z" />
<glyph unicode="&#xc5;" d="M36 25v1249l61 61h4l197 197h713q206 0 285 -242v-1064l-197 -197v-4l-60 -60h-309l-60 60v511h-4v-80q0 -120 -74 -194l-174 -174q-32 -43 -83 -73t-123 -50h-115zM71 40l41 -40h95q227 60 227 256v315h271v-531l40 -40h279l40 40v1046q-70 214 -253 214h-699l-41 -40 v-1220zM434 890v92h271v-92h-271z" />
<glyph unicode="&#xc6;" horiz-adv-x="2283" d="M36 25v1249l61 61h4l197 197h713q206 0 285 -242v-1064l-197 -197v-4l-60 -60h-309l-60 60v511h-4v-80q0 -120 -74 -194l-174 -174q-32 -43 -83 -73t-123 -50h-115zM71 40l41 -40h95q227 60 227 256v315h271v-531l40 -40h279l40 40v1046q-70 214 -253 214h-699l-41 -40 v-1220zM434 890v92h271v-92h-271zM1182 271v451l47 47q-23 37 -39 84l-8 93v329l60 60h4l197 197h695q107 0 180.5 -56.5t109.5 -160.5l1 1q12 -32 12 -76v-135l-197 -197v-4l-60 -60h-91v-61l-197 -197v-4l-35 -35h47l169 169h306l58 -59v-431l-197 -197v-4l-60 -60h-693 q-218 0 -301 220zM1217 272l8 -79q74 -193 266 -193h678l40 40v403l-40 41h-278l-41 -41v-128h-271v242h242l40 40v238l-40 40h-242v107h271v-63l41 -40h278l40 40v121q0 40 -10 64q-32 94 -98 145t-163 51h-681l-40 -40v-313l8 -87q13 -39 30 -69l-12 -12h20q3 -5 6.5 -10 t6.5 -10l-6 -12h-13l-40 -40v-435zM1281 747l1 1v-1h-1z" />
<glyph unicode="&#xc7;" horiz-adv-x="1138" d="M34 253v791q0 144 114 227l166 166q55 54 143 86l60 9h488q199 0 280 -226l8 -89v-159l-58 -59l-139 -139v-3l-60 -61h-312l-60 61v90h-4v-400h111l154 154h310l58 -58v-417l-197 -197v-4l-60 -60h-696q-229 0 -303 239zM69 254l3 -42q65 -212 268 -212h681l40 40v389 l-40 40h-282l-40 -40v-114h-271v667h271v-110l40 -41h282l40 41v144l-8 84q-72 200 -248 200h-483l-59 -9q-194 -71 -194 -247v-790zM160 -264l59 59h4l197 197h547l58 -57v-168l-197 -197v-4l-60 -59h-549l-59 59v170zM195 -279v-140l39 -39h519l40 39v140l-40 39h-519z " />
<glyph unicode="&#xc8;" horiz-adv-x="1136" d="M35 271v451l47 47q-23 37 -39 84l-8 93v329l60 60h4l197 197h695q107 0 180.5 -56.5t109.5 -160.5l1 1q12 -32 12 -76v-135l-197 -197v-4l-60 -60h-91v-61l-197 -197v-4l-35 -35h47l169 169h306l58 -59v-431l-197 -197v-4l-60 -60h-693q-218 0 -301 220zM70 272l8 -79 q74 -193 266 -193h678l40 40v403l-40 41h-278l-41 -41v-128h-271v242h242l40 40v238l-40 40h-242v107h271v-63l41 -40h278l40 40v121q0 40 -10 64q-32 94 -98 145t-163 51h-681l-40 -40v-313l8 -87q13 -39 30 -69l-12 -12h20q3 -5 6.5 -10t6.5 -10l-6 -12h-13l-40 -40v-435z M134 747l1 1v-1h-1zM378 1966h9l197 197h176q89 -5 146 -19t83 -40l6 2q6 -11 13.5 -25.5t16 -29.5t16.5 -30.5t15 -28.5q14 -27 32 -59t30 -54q-5 -13 -13 -24.5t-19 -22.5l-180 -180q-26 -37 -77 -65.5t-129 -52.5zM448 1931l265 -356q74 23 115.5 47.5t54.5 54.5 q-24 45 -54.5 100.5t-54.5 100.5l2 -8q-26 50 -217 61h-111z" />
<glyph unicode="&#xc9;" horiz-adv-x="1136" d="M35 271v451l47 47q-23 37 -39 84l-8 93v329l60 60h4l197 197h695q107 0 180.5 -56.5t109.5 -160.5l1 1q12 -32 12 -76v-135l-197 -197v-4l-60 -60h-91v-61l-197 -197v-4l-35 -35h47l169 169h306l58 -59v-431l-197 -197v-4l-60 -60h-693q-218 0 -301 220zM70 272l8 -79 q74 -193 266 -193h678l40 40v403l-40 41h-278l-41 -41v-128h-271v242h242l40 40v238l-40 40h-242v107h271v-63l41 -40h278l40 40v121q0 40 -10 64q-32 94 -98 145t-163 51h-681l-40 -40v-313l8 -87q13 -39 30 -69l-12 -12h20q3 -5 6.5 -10t6.5 -10l-6 -12h-13l-40 -40v-435z M134 747l1 1v-1h-1zM502 1669q67 131 114 203t68 84h2l187 187q6 6 12 10q108 15 362 15l-321 -422l-183 -183l-16 -21q-81 27 -138.5 60.5t-86.5 66.5zM545 1673q18 -21 61 -44.5t109 -45.5l267 353q-92 0 -164 -3.5t-123 -10.5q-14 -8 -52 -70t-98 -179z" />
<glyph unicode="&#xca;" horiz-adv-x="1136" d="M35 271v451l47 47q-23 37 -39 84l-8 93v329l60 60h4l197 197h695q107 0 180.5 -56.5t109.5 -160.5l1 1q12 -32 12 -76v-135l-197 -197v-4l-60 -60h-91v-61l-197 -197v-4l-35 -35h47l169 169h306l58 -59v-431l-197 -197v-4l-60 -60h-693q-218 0 -301 220zM70 272l8 -79 q74 -193 266 -193h678l40 40v403l-40 41h-278l-41 -41v-128h-271v242h242l40 40v238l-40 40h-242v107h271v-63l41 -40h278l40 40v121q0 40 -10 64q-32 94 -98 145t-163 51h-681l-40 -40v-313l8 -87q13 -39 30 -69l-12 -12h20q3 -5 6.5 -10t6.5 -10l-6 -12h-13l-40 -40v-435z M134 747l1 1v-1h-1zM385 1608v170l59 59h4l197 197h547l58 -57v-168l-197 -197v-4l-60 -59h-549zM420 1623l39 -39h519l40 39v140l-40 39h-519l-39 -39v-140z" />
<glyph unicode="&#xcb;" horiz-adv-x="1136" d="M35 271v451l47 47q-23 37 -39 84l-8 93v329l60 60h4l197 197h695q107 0 180.5 -56.5t109.5 -160.5l1 1q12 -32 12 -76v-135l-197 -197v-4l-60 -60h-91v-61l-197 -197v-4l-35 -35h47l169 169h306l58 -59v-431l-197 -197v-4l-60 -60h-693q-218 0 -301 220zM70 272l8 -79 q74 -193 266 -193h678l40 40v403l-40 41h-278l-41 -41v-128h-271v242h242l40 40v238l-40 40h-242v107h271v-63l41 -40h278l40 40v121q0 40 -10 64q-32 94 -98 145t-163 51h-681l-40 -40v-313l8 -87q13 -39 30 -69l-12 -12h20q3 -5 6.5 -10t6.5 -10l-6 -12h-13l-40 -40v-435z M134 747l1 1v-1h-1z" />
<glyph unicode="&#xcc;" horiz-adv-x="444" d="M34 25v1249l61 61h4l197 197h310l58 -58v-999q0 -134 -83 -217l-169 -169q-50 -68 -141 -107q-45 -17 -88 -17h-88zM66 1947h9l197 197h176q89 -5 146 -19t83 -40l6 2q6 -11 13.5 -25.5t16 -29.5t16.5 -30.5t15 -28.5q14 -27 32 -59t30 -54q-5 -13 -13 -24.5t-19 -22.5 l-180 -180q-26 -37 -77 -65.5t-129 -52.5zM69 40l41 -40h73q36 0 75 15q174 74 174 260v985l-40 40h-282l-41 -40v-1220zM136 1912l265 -356q74 23 115.5 47.5t54.5 54.5q-24 45 -54.5 100.5t-54.5 100.5l2 -8q-26 50 -217 61h-111z" />
<glyph unicode="&#xcd;" horiz-adv-x="444" d="M34 25v1249l61 61h4l197 197h310l58 -58v-999q0 -134 -83 -217l-169 -169q-50 -68 -141 -107q-45 -17 -88 -17h-88zM69 40l41 -40h73q36 0 75 15q174 74 174 260v985l-40 40h-282l-41 -40v-1220zM229 1642q67 131 114 203t68 84h2l187 187q6 6 12 10q108 15 362 15 l-321 -422l-183 -183l-16 -21q-81 27 -138.5 60.5t-86.5 66.5zM272 1646q18 -21 61 -44.5t109 -45.5l267 353q-92 0 -164 -3.5t-123 -10.5q-14 -8 -52 -70t-98 -179z" />
<glyph unicode="&#xce;" horiz-adv-x="444" d="M34 25v1249l61 61h4l197 197h310l58 -58v-999q0 -134 -83 -217l-169 -169q-50 -68 -141 -107q-45 -17 -88 -17h-88zM69 40l41 -40h73q36 0 75 15q174 74 174 260v985l-40 40h-282l-41 -40v-1220zM85 1574v170l59 59h4l197 197h547l58 -57v-168l-197 -197v-4l-60 -59h-549 zM120 1589l39 -39h519l40 39v140l-40 39h-519l-39 -39v-140z" />
<glyph unicode="&#xcf;" horiz-adv-x="444" d="M34 25v1249l61 61h4l197 197h310l58 -58v-999q0 -134 -83 -217l-169 -169q-50 -68 -141 -107q-45 -17 -88 -17h-88zM69 40l41 -40h73q36 0 75 15q174 74 174 260v985l-40 40h-282l-41 -40v-1220z" />
<glyph unicode="&#xd0;" horiz-adv-x="1326" d="M34 25v1250l60 60h4l197 197h710q185 0 271 -198q9 -26 13 -52t4 -53v-765q0 -62 -20.5 -112t-58.5 -88l-173 -173q-56 -76 -168 -114q-17 -5 -35 -8.5t-41 -3.5h-703zM69 40l40 -40h688q20 0 35.5 2.5t29.5 7.5q95 32 147 96t52 158v765q0 26 -3 49t-11 44 q-76 178 -242 178h-696l-40 -40v-1220zM380 315l33 -15l15 -33v48h-48zM428 315v667h271v-667h-271zM660 547h4v400h-4v-400z" />
<glyph unicode="&#xd1;" horiz-adv-x="1199" d="M35 25v1250l61 60h3l139 139l59 58h310l58 -58v-45q158 49 246.5 75.5t111.5 31.5h27q244 0 303 -258l4 -53v-754q0 -129 -80 -211l-172 -172q-57 -77 -174 -118l-46 -5h-97l-60 60v890q-35 -11 -63 -18v-671l-197 -197v-4l-60 -60h-312zM70 40l41 -40h282l40 40v826 q1 3 20 8.5t58.5 16.5t101.5 28t150 43v-922l40 -40h81l41 5q200 69 200 266v753l-4 51q-52 229 -271 229h-22q-23 -4 -121.5 -34t-273.5 -85v75l-40 40h-282l-41 -40v-1220zM343 1672v234l6 -3l197 198q192 -82 222 -82q15 0 147 38l38 5q113 0 259 -97v-179l-197 -197v-4 l-80 -80q-74 40 -121 59t-67 19h-25q-54 -11 -92 -16t-55 -5h-62q-170 18 -170 110zM378 1672q0 -60 138 -75h59q36 0 146 21h26q26 0 71 -17t111 -52l51 51v147q-125 83 -224 83l-35 -5q-132 -38 -153 -38q-34 0 -190 66v-181z" />
<glyph unicode="&#xd2;" horiz-adv-x="1130" d="M35 249v1026l60 60h4l197 197h706q198 0 285 -228l8 -120v-958l-197 -197v-4l-61 -60h-711q-184 0 -273 194q-10 24 -14 46t-4 44zM70 249q0 -19 3.5 -37.5t11.5 -38.5q78 -173 241 -173h696l41 40v943l-8 115q-76 202 -253 202h-692l-40 -40v-1011zM356 1940h9l197 197 h176q89 -5 146 -19t83 -40l6 2q6 -11 13.5 -25.5t16 -29.5t16.5 -30.5t15 -28.5q14 -27 32 -59t30 -54q-5 -13 -13 -24.5t-19 -22.5l-180 -180q-26 -37 -77 -65.5t-129 -52.5zM426 1905l265 -356q74 23 115.5 47.5t54.5 54.5q-24 45 -54.5 100.5t-54.5 100.5l2 -8 q-26 50 -217 61h-111zM429 315v667h271v-667h-271zM661 547h4v400h-4v-400z" />
<glyph unicode="&#xd3;" horiz-adv-x="1130" d="M35 249v1026l60 60h4l197 197h706q198 0 285 -228l8 -120v-958l-197 -197v-4l-61 -60h-711q-184 0 -273 194q-10 24 -14 46t-4 44zM70 249q0 -19 3.5 -37.5t11.5 -38.5q78 -173 241 -173h696l41 40v943l-8 115q-76 202 -253 202h-692l-40 -40v-1011zM429 315v667h271 v-667h-271zM509 1650q67 131 114 203t68 84h2l187 187q6 6 12 10q108 15 362 15l-321 -422l-183 -183l-16 -21q-81 27 -138.5 60.5t-86.5 66.5zM552 1654q18 -21 61 -44.5t109 -45.5l267 353q-92 0 -164 -3.5t-123 -10.5q-14 -8 -52 -70t-98 -179zM661 547h4v400h-4v-400z " />
<glyph unicode="&#xd4;" horiz-adv-x="1130" d="M35 249v1026l60 60h4l197 197h706q198 0 285 -228l8 -120v-958l-197 -197v-4l-61 -60h-711q-184 0 -273 194q-10 24 -14 46t-4 44zM70 249q0 -19 3.5 -37.5t11.5 -38.5q78 -173 241 -173h696l41 40v943l-8 115q-76 202 -253 202h-692l-40 -40v-1011zM372 1595v170l59 59 h4l197 197h547l58 -57v-168l-197 -197v-4l-60 -59h-549zM407 1610l39 -39h519l40 39v140l-40 39h-519l-39 -39v-140zM429 315v667h271v-667h-271zM661 547h4v400h-4v-400z" />
<glyph unicode="&#xd5;" horiz-adv-x="1130" d="M35 249v1026l60 60h4l197 197h706q198 0 285 -228l8 -120v-958l-197 -197v-4l-61 -60h-711q-184 0 -273 194q-10 24 -14 46t-4 44zM70 249q0 -19 3.5 -37.5t11.5 -38.5q78 -173 241 -173h696l41 40v943l-8 115q-76 202 -253 202h-692l-40 -40v-1011zM300 1682v234l6 -3 l197 198q192 -82 222 -82q15 0 147 38l38 5q113 0 259 -97v-179l-197 -197v-4l-80 -80q-74 40 -121 59t-67 19h-25q-54 -11 -92 -16t-55 -5h-62q-170 18 -170 110zM335 1682q0 -60 138 -75h59q36 0 146 21h26q26 0 71 -17t111 -52l51 51v147q-125 83 -224 83l-35 -5 q-132 -38 -153 -38q-34 0 -190 66v-181zM429 315v667h271v-667h-271zM661 547h4v400h-4v-400z" />
<glyph unicode="&#xd6;" horiz-adv-x="1130" d="M35 249v1026l60 60h4l197 197h706q198 0 285 -228l8 -120v-958l-197 -197v-4l-61 -60h-711q-184 0 -273 194q-10 24 -14 46t-4 44zM70 249q0 -19 3.5 -37.5t11.5 -38.5q78 -173 241 -173h696l41 40v943l-8 115q-76 202 -253 202h-692l-40 -40v-1011zM429 315v667h271 v-667h-271zM661 547h4v400h-4v-400z" />
<glyph unicode="&#xd7;" horiz-adv-x="1707" />
<glyph unicode="&#xd8;" horiz-adv-x="1130" d="M35 249v1026l60 60h4l197 197h706q198 0 285 -228l8 -120v-958l-197 -197v-4l-61 -60h-711q-184 0 -273 194q-10 24 -14 46t-4 44zM70 249q0 -19 3.5 -37.5t11.5 -38.5q78 -173 241 -173h696l41 40v943l-8 115q-76 202 -253 202h-692l-40 -40v-1011zM195 -38l569 1610 l4 -2l198 198l265 -91l-568 -1607l-195 -194l-3 -10zM240 -17l204 -72l546 1546l-204 71zM429 315v667h271v-667h-271zM661 547h4v400h-4v-400z" />
<glyph unicode="&#xd9;" horiz-adv-x="1190" d="M33 263v770q0 153 108 236l173 173q60 60 167 90h123l58 -58v-894q16 4 31.5 9t31.5 10v676l60 60h4l197 197h310l58 -58v-1248l-197 -197v-4l-60 -60h-312l-60 60v42q-329 -102 -364 -102h-48q-180 0 -272 220zM68 266l8 -72q80 -194 237 -194h48q32 0 399 115v-75 l40 -40h282l40 40v1220l-40 40h-282l-40 -40v-820q-46 -14 -87.5 -27t-81 -25.5t-79.5 -25t-82 -25.5v923l-40 40h-104q-218 -62 -218 -267v-767zM412 1879h9l197 197h176q89 -5 146 -19t83 -40l6 2q6 -11 13.5 -25.5t16 -29.5t16.5 -30.5t15 -28.5q14 -27 32 -59t30 -54 q-5 -13 -13 -24.5t-19 -22.5l-180 -180q-26 -37 -77 -65.5t-129 -52.5zM482 1844l265 -356q74 23 115.5 47.5t54.5 54.5q-24 45 -54.5 100.5t-54.5 100.5l2 -8q-26 50 -217 61h-111z" />
<glyph unicode="&#xda;" horiz-adv-x="1190" d="M33 263v770q0 153 108 236l173 173q60 60 167 90h123l58 -58v-894q16 4 31.5 9t31.5 10v676l60 60h4l197 197h310l58 -58v-1248l-197 -197v-4l-60 -60h-312l-60 60v42q-329 -102 -364 -102h-48q-180 0 -272 220zM68 266l8 -72q80 -194 237 -194h48q32 0 399 115v-75 l40 -40h282l40 40v1220l-40 40h-282l-40 -40v-820q-46 -14 -87.5 -27t-81 -25.5t-79.5 -25t-82 -25.5v923l-40 40h-104q-218 -62 -218 -267v-767zM603 1569q67 131 114 203t68 84h2l187 187q6 6 12 10q108 15 362 15l-321 -422l-183 -183l-16 -21q-81 27 -138.5 60.5 t-86.5 66.5zM646 1573q18 -21 61 -44.5t109 -45.5l267 353q-92 0 -164 -3.5t-123 -10.5q-14 -8 -52 -70t-98 -179z" />
<glyph unicode="&#xdb;" horiz-adv-x="1190" d="M33 263v770q0 153 108 236l173 173q60 60 167 90h123l58 -58v-894q16 4 31.5 9t31.5 10v676l60 60h4l197 197h310l58 -58v-1248l-197 -197v-4l-60 -60h-312l-60 60v42q-329 -102 -364 -102h-48q-180 0 -272 220zM68 266l8 -72q80 -194 237 -194h48q32 0 399 115v-75 l40 -40h282l40 40v1220l-40 40h-282l-40 -40v-820q-46 -14 -87.5 -27t-81 -25.5t-79.5 -25t-82 -25.5v923l-40 40h-104q-218 -62 -218 -267v-767zM444 1613v170l59 59h4l197 197h547l58 -57v-168l-197 -197v-4l-60 -59h-549zM479 1628l39 -39h519l40 39v140l-40 39h-519 l-39 -39v-140z" />
<glyph unicode="&#xdc;" horiz-adv-x="1190" d="M33 263v770q0 153 108 236l173 173q60 60 167 90h123l58 -58v-894q16 4 31.5 9t31.5 10v676l60 60h4l197 197h310l58 -58v-1248l-197 -197v-4l-60 -60h-312l-60 60v42q-329 -102 -364 -102h-48q-180 0 -272 220zM68 266l8 -72q80 -194 237 -194h48q32 0 399 115v-75 l40 -40h282l40 40v1220l-40 40h-282l-40 -40v-820q-46 -14 -87.5 -27t-81 -25.5t-79.5 -25t-82 -25.5v923l-40 40h-104q-218 -62 -218 -267v-767z" />
<glyph unicode="&#xdd;" horiz-adv-x="1065" d="M31 1245v94h6l197 197h347q31 0 101 -115l57 57l59 58h193q333 0 333 -182v-15q0 -39 -40 -128t-119 -229q-36 -72 -71 -142.5t-71 -142.5v-471l-197 -197v-4l-60 -60h-308l-61 60v553q-57 23 -100.5 82.5t-75.5 156.5q-190 392 -190 428zM66 1245q0 -23 187 -414 q65 -198 179 -228v-563l41 -40h278l40 40v466l145 290l-2 -3q78 138 118 224.5t40 121.5v15q0 150 -301 150h-179l-41 -40v-172l41 -41h61q-20 -47 -33 -80t-26 -65q-194 398 -233 398h-315v-59zM507 1648q67 131 114 203t68 84h2l187 187q6 6 12 10q108 15 362 15 l-321 -422l-183 -183l-16 -21q-81 27 -138.5 60.5t-86.5 66.5zM550 1652q18 -21 61 -44.5t109 -45.5l267 353q-92 0 -164 -3.5t-123 -10.5q-14 -8 -52 -70t-98 -179z" />
<glyph unicode="&#xde;" horiz-adv-x="1707" />
<glyph unicode="&#xdf;" horiz-adv-x="1707" />
<glyph unicode="&#xe0;" d="M34 24v1223l59 59h4l197 197h698q199 0 279 -237v-1041l-197 -197v-4l-59 -59h-302l-60 59v387q-10 -90 -71 -151l-172 -172q-62 -86 -204 -123h-113zM69 39l39 -39h93q222 58 222 251v308h265v-520l40 -39h272l39 39v1023q-70 209 -247 209h-684l-39 -39v-1193z M373 1929h9l197 197h176q89 -5 146 -19t83 -40l6 2q6 -11 13.5 -25.5t16 -29.5t16.5 -30.5t15 -28.5q14 -27 32 -59t30 -54q-5 -13 -13 -24.5t-19 -22.5l-180 -180q-26 -37 -77 -65.5t-129 -52.5zM423 870v90h265v-90h-265zM443 1894l265 -356q74 23 115.5 47.5t54.5 54.5 q-24 45 -54.5 100.5t-54.5 100.5l2 -8q-26 50 -217 61h-111z" />
<glyph unicode="&#xe1;" d="M34 24v1223l59 59h4l197 197h698q199 0 279 -237v-1041l-197 -197v-4l-59 -59h-302l-60 59v387q-10 -90 -71 -151l-172 -172q-62 -86 -204 -123h-113zM69 39l39 -39h93q222 58 222 251v308h265v-520l40 -39h272l39 39v1023q-70 209 -247 209h-684l-39 -39v-1193zM423 870 v90h265v-90h-265zM505 1624q67 131 114 203t68 84h2l187 187q6 6 12 10q108 15 362 15l-321 -422l-183 -183l-16 -21q-81 27 -138.5 60.5t-86.5 66.5zM548 1628q18 -21 61 -44.5t109 -45.5l267 353q-92 0 -164 -3.5t-123 -10.5q-14 -8 -52 -70t-98 -179z" />
<glyph unicode="&#xe2;" d="M34 24v1223l59 59h4l197 197h698q199 0 279 -237v-1041l-197 -197v-4l-59 -59h-302l-60 59v387q-10 -90 -71 -151l-172 -172q-62 -86 -204 -123h-113zM69 39l39 -39h93q222 58 222 251v308h265v-520l40 -39h272l39 39v1023q-70 209 -247 209h-684l-39 -39v-1193z M363 1591v170l59 59h4l197 197h547l58 -57v-168l-197 -197v-4l-60 -59h-549zM398 1606l39 -39h519l40 39v140l-40 39h-519l-39 -39v-140zM423 870v90h265v-90h-265z" />
<glyph unicode="&#xe3;" d="M34 24v1223l59 59h4l197 197h698q199 0 279 -237v-1041l-197 -197v-4l-59 -59h-302l-60 59v387q-10 -90 -71 -151l-172 -172q-62 -86 -204 -123h-113zM69 39l39 -39h93q222 58 222 251v308h265v-520l40 -39h272l39 39v1023q-70 209 -247 209h-684l-39 -39v-1193z M329 1655v234l6 -3l197 198q192 -82 222 -82q15 0 147 38l38 5q113 0 259 -97v-179l-197 -197v-4l-80 -80q-74 40 -121 59t-67 19h-25q-54 -11 -92 -16t-55 -5h-62q-170 18 -170 110zM364 1655q0 -60 138 -75h59q36 0 146 21h26q26 0 71 -17t111 -52l51 51v147 q-125 83 -224 83l-35 -5q-132 -38 -153 -38q-34 0 -190 66v-181zM423 870v90h265v-90h-265z" />
<glyph unicode="&#xe4;" d="M34 24v1223l59 59h4l197 197h698q199 0 279 -237v-1041l-197 -197v-4l-59 -59h-302l-60 59v387q-10 -90 -71 -151l-172 -172q-62 -86 -204 -123h-113zM69 39l39 -39h93q222 58 222 251v308h265v-520l40 -39h272l39 39v1023q-70 209 -247 209h-684l-39 -39v-1193zM423 870 v90h265v-90h-265z" />
<glyph unicode="&#xe5;" d="M34 24v1223l59 59h4l197 197h698q199 0 279 -237v-1041l-197 -197v-4l-59 -59h-302l-60 59v387q-10 -90 -71 -151l-172 -172q-62 -86 -204 -123h-113zM69 39l39 -39h93q222 58 222 251v308h265v-520l40 -39h272l39 39v1023q-70 209 -247 209h-684l-39 -39v-1193zM423 870 v90h265v-90h-265z" />
<glyph unicode="&#xe6;" horiz-adv-x="2283" d="M34 24v1223l59 59h4l197 197h698q199 0 279 -237v-1041l-197 -197v-4l-59 -59h-302l-60 59v387q-10 -90 -71 -151l-172 -172q-62 -86 -204 -123h-113zM69 39l39 -39h93q222 58 222 251v308h265v-520l40 -39h272l39 39v1023q-70 209 -247 209h-684l-39 -39v-1193zM423 870 v90h265v-90h-265zM1181 264v442l46 46q-23 37 -38 83l-8 90v322l59 59h4l197 197h680q106 0 177.5 -55.5t106.5 -157.5l1 1q6 -16 9 -33.5t3 -40.5v-132l-57 -58l-140 -140v-3l-59 -60h-84v-54l-57 -58l-140 -140v-3l-29 -29h44l165 165h300l57 -58v-422l-197 -197v-4 l-59 -59h-677q-107 0 -180.5 54.5t-115.5 161.5zM1216 266l8 -77q73 -189 261 -189h662l39 39v394l-39 40h-272l-40 -40v-125h-265v236h237l39 40v232l-39 40h-237v104h265v-61l40 -40h272l39 40v118q0 38 -10 62q-32 92 -96 142t-159 50h-666l-39 -39v-306l8 -85 q6 -19 13.5 -35.5t15.5 -31.5l-12 -12h20q3 -5 6.5 -10t6.5 -10l-6 -12h-13l-39 -39v-425zM1279 730l2 2q1 -1 1.5 -1t1.5 -1h-5z" />
<glyph unicode="&#xe7;" horiz-adv-x="1138" d="M33 247v773q0 141 111 222l168 168q53 53 140 84l59 9h477q97 0 166 -54.5t108 -167.5l8 -86v-157l-197 -197v-4l-59 -59h-306l-57 57v-295h108l150 150h304l57 -57v-408l-197 -197v-4l-59 -59h-681q-226 0 -296 234zM68 248l4 -41q63 -207 261 -207h666l39 39v380 l-39 39h-276l-39 -39v-111h-265v652h265v-108l39 -39h276l39 39v142l-8 81q-35 100 -95.5 148t-146.5 48h-472l-58 -9q-190 -69 -190 -242v-772zM131 -275l59 59h4l197 197h547l58 -57v-168l-197 -197v-4l-60 -59h-549l-59 59v170zM166 -290v-140l39 -39h519l40 39v140 l-40 39h-519z" />
<glyph unicode="&#xe8;" horiz-adv-x="1136" d="M34 264v442l46 46q-23 37 -38 83l-8 90v322l59 59h4l197 197h680q106 0 177.5 -55.5t106.5 -157.5l1 1q6 -16 9 -33.5t3 -40.5v-132l-57 -58l-140 -140v-3l-59 -60h-84v-54l-57 -58l-140 -140v-3l-29 -29h44l165 165h300l57 -58v-422l-197 -197v-4l-59 -59h-677 q-107 0 -180.5 54.5t-115.5 161.5zM69 266l8 -77q73 -189 261 -189h662l39 39v394l-39 40h-272l-40 -40v-125h-265v236h237l39 40v232l-39 40h-237v104h265v-61l40 -40h272l39 40v118q0 38 -10 62q-32 92 -96 142t-159 50h-666l-39 -39v-306l8 -85q6 -19 13.5 -35.5 t15.5 -31.5l-12 -12h20q3 -5 6.5 -10t6.5 -10l-6 -12h-13l-39 -39v-425zM132 730l2 2q1 -1 1.5 -1t1.5 -1h-5zM329 1927h9l197 197h176q89 -5 146 -19t83 -40l6 2q6 -11 13.5 -25.5t16 -29.5t16.5 -30.5t15 -28.5q14 -27 32 -59t30 -54q-5 -13 -13 -24.5t-19 -22.5 l-180 -180q-26 -37 -77 -65.5t-129 -52.5zM399 1892l265 -356q74 23 115.5 47.5t54.5 54.5q-24 45 -54.5 100.5t-54.5 100.5l2 -8q-26 50 -217 61h-111z" />
<glyph unicode="&#xe9;" horiz-adv-x="1136" d="M34 264v442l46 46q-23 37 -38 83l-8 90v322l59 59h4l197 197h680q106 0 177.5 -55.5t106.5 -157.5l1 1q6 -16 9 -33.5t3 -40.5v-132l-57 -58l-140 -140v-3l-59 -60h-84v-54l-57 -58l-140 -140v-3l-29 -29h44l165 165h300l57 -58v-422l-197 -197v-4l-59 -59h-677 q-107 0 -180.5 54.5t-115.5 161.5zM69 266l8 -77q73 -189 261 -189h662l39 39v394l-39 40h-272l-40 -40v-125h-265v236h237l39 40v232l-39 40h-237v104h265v-61l40 -40h272l39 40v118q0 38 -10 62q-32 92 -96 142t-159 50h-666l-39 -39v-306l8 -85q6 -19 13.5 -35.5 t15.5 -31.5l-12 -12h20q3 -5 6.5 -10t6.5 -10l-6 -12h-13l-39 -39v-425zM132 730l2 2q1 -1 1.5 -1t1.5 -1h-5zM517 1619q67 131 114 203t68 84h2l187 187q6 6 12 10q108 15 362 15l-321 -422l-183 -183l-16 -21q-81 27 -138.5 60.5t-86.5 66.5zM560 1623q18 -21 61 -44.5 t109 -45.5l267 353q-92 0 -164 -3.5t-123 -10.5q-14 -8 -52 -70t-98 -179z" />
<glyph unicode="&#xea;" horiz-adv-x="1136" d="M34 264v442l46 46q-23 37 -38 83l-8 90v322l59 59h4l197 197h680q106 0 177.5 -55.5t106.5 -157.5l1 1q6 -16 9 -33.5t3 -40.5v-132l-57 -58l-140 -140v-3l-59 -60h-84v-54l-57 -58l-140 -140v-3l-29 -29h44l165 165h300l57 -58v-422l-197 -197v-4l-59 -59h-677 q-107 0 -180.5 54.5t-115.5 161.5zM69 266l8 -77q73 -189 261 -189h662l39 39v394l-39 40h-272l-40 -40v-125h-265v236h237l39 40v232l-39 40h-237v104h265v-61l40 -40h272l39 40v118q0 38 -10 62q-32 92 -96 142t-159 50h-666l-39 -39v-306l8 -85q6 -19 13.5 -35.5 t15.5 -31.5l-12 -12h20q3 -5 6.5 -10t6.5 -10l-6 -12h-13l-39 -39v-425zM132 730l2 2q1 -1 1.5 -1t1.5 -1h-5zM370 1585v170l59 59h4l197 197h547l58 -57v-168l-197 -197v-4l-60 -59h-549zM405 1600l39 -39h519l40 39v140l-40 39h-519l-39 -39v-140z" />
<glyph unicode="&#xeb;" horiz-adv-x="1136" d="M34 264v442l46 46q-23 37 -38 83l-8 90v322l59 59h4l197 197h680q106 0 177.5 -55.5t106.5 -157.5l1 1q6 -16 9 -33.5t3 -40.5v-132l-57 -58l-140 -140v-3l-59 -60h-84v-54l-57 -58l-140 -140v-3l-29 -29h44l165 165h300l57 -58v-422l-197 -197v-4l-59 -59h-677 q-107 0 -180.5 54.5t-115.5 161.5zM69 266l8 -77q73 -189 261 -189h662l39 39v394l-39 40h-272l-40 -40v-125h-265v236h237l39 40v232l-39 40h-237v104h265v-61l40 -40h272l39 40v118q0 38 -10 62q-32 92 -96 142t-159 50h-666l-39 -39v-306l8 -85q6 -19 13.5 -35.5 t15.5 -31.5l-12 -12h20q3 -5 6.5 -10t6.5 -10l-6 -12h-13l-39 -39v-425zM132 730l2 2q1 -1 1.5 -1t1.5 -1h-5z" />
<glyph unicode="&#xec;" horiz-adv-x="444" d="M-30 1863h9l197 197h176q89 -5 146 -19t83 -40l6 2q6 -11 13.5 -25.5t16 -29.5t16.5 -30.5t15 -28.5q14 -27 32 -59t30 -54q-5 -13 -13 -24.5t-19 -22.5l-180 -180q-26 -37 -77 -65.5t-129 -52.5zM33 24v1223l59 59h4l197 197h304l57 -57v-977q0 -131 -80 -213l-173 -173 q-48 -64 -136 -102q-42 -16 -86 -16h-87zM40 1828l265 -356q74 23 115.5 47.5t54.5 54.5q-24 45 -54.5 100.5t-54.5 100.5l2 -8q-26 50 -217 61h-111zM68 39l39 -39h72q17 0 35.5 3t37.5 11q170 74 170 255v963l-39 39h-276l-39 -39v-1193z" />
<glyph unicode="&#xed;" horiz-adv-x="444" d="M33 24v1223l59 59h4l197 197h304l57 -57v-977q0 -131 -80 -213l-173 -173q-48 -64 -136 -102q-42 -16 -86 -16h-87zM68 39l39 -39h72q17 0 35.5 3t37.5 11q170 74 170 255v963l-39 39h-276l-39 -39v-1193zM219 1540q67 131 114 203t68 84h2l187 187q6 6 12 10 q108 15 362 15l-321 -422l-183 -183l-16 -21q-81 27 -138.5 60.5t-86.5 66.5zM262 1544q18 -21 61 -44.5t109 -45.5l267 353q-92 0 -164 -3.5t-123 -10.5q-14 -8 -52 -70t-98 -179z" />
<glyph unicode="&#xee;" horiz-adv-x="444" d="M-3 1567v170l59 59h4l197 197h547l58 -57v-168l-197 -197v-4l-60 -59h-549zM32 1582l39 -39h519l40 39v140l-40 39h-519l-39 -39v-140zM33 24v1223l59 59h4l197 197h304l57 -57v-977q0 -131 -80 -213l-173 -173q-48 -64 -136 -102q-42 -16 -86 -16h-87zM68 39l39 -39h72 q17 0 35.5 3t37.5 11q170 74 170 255v963l-39 39h-276l-39 -39v-1193z" />
<glyph unicode="&#xef;" horiz-adv-x="444" d="M33 24v1223l59 59h4l197 197h304l57 -57v-977q0 -131 -80 -213l-173 -173q-48 -64 -136 -102q-42 -16 -86 -16h-87zM68 39l39 -39h72q17 0 35.5 3t37.5 11q170 74 170 255v963l-39 39h-276l-39 -39v-1193z" />
<glyph unicode="&#xf0;" horiz-adv-x="1087" d="M32 687v560l59 59h4l197 197h680q227 0 294 -239l3 -55v-984l-197 -197v-4l-59 -59h-306l-59 59v374h-288q-260 0 -325 244zM67 688l3 -40q56 -215 290 -215h323v-394l39 -39h276l39 39v969l-3 50q-59 213 -262 213h-666l-39 -39v-544zM418 745v218h265v-218h-265z" />
<glyph unicode="&#xf1;" horiz-adv-x="1199" d="M34 24v1223l59 59h4l197 197h304l57 -57v-43q151 48 239 73.5t111 30.5h27q237 0 296 -253l4 -52v-737q0 -129 -79 -208l-173 -173q-55 -74 -169 -115l-45 -4h-96l-59 59v870q-15 -5 -28.5 -8.5t-27.5 -7.5v-653l-197 -197v-4l-59 -59h-306zM69 39l39 -39h276l39 39v808 q2 2 20.5 7.5t57 16.5t99 28t146.5 42v-902l39 -39h80l39 4q196 69 196 261v736l-4 50q-51 224 -264 224h-22q-22 -4 -119 -33.5t-268 -83.5v74l-39 39h-276l-39 -39v-1193zM354 1643v234l6 -3l197 198q192 -82 222 -82q15 0 147 38l38 5q113 0 259 -97v-179l-197 -197v-4 l-80 -80q-74 40 -121 59t-67 19h-25q-54 -11 -92 -16t-55 -5h-62q-170 18 -170 110zM389 1643q0 -60 138 -75h59q36 0 146 21h26q26 0 71 -17t111 -52l51 51v147q-125 83 -224 83l-35 -5q-132 -38 -153 -38q-34 0 -190 66v-181z" />
<glyph unicode="&#xf2;" horiz-adv-x="1130" d="M34 243v1003l60 60h4l197 197h690q196 0 279 -224l8 -118v-936l-197 -197v-4l-60 -59h-695q-182 0 -269 190q-17 45 -17 88zM69 243q0 -37 15 -74q76 -169 236 -169h680l40 39v921l-8 113q-74 198 -247 198h-676l-40 -39v-989zM325 1908h9l197 197h176q89 -5 146 -19 t83 -40l6 2q6 -11 13.5 -25.5t16 -29.5t16.5 -30.5t15 -28.5q14 -27 32 -59t30 -54q-5 -13 -13 -24.5t-19 -22.5l-180 -180q-26 -37 -77 -65.5t-129 -52.5zM395 1873l265 -356q74 23 115.5 47.5t54.5 54.5q-24 45 -54.5 100.5t-54.5 100.5l2 -8q-26 50 -217 61h-111z M420 308v652h265v-652h-265z" />
<glyph unicode="&#xf3;" horiz-adv-x="1130" d="M34 243v1003l60 60h4l197 197h690q196 0 279 -224l8 -118v-936l-197 -197v-4l-60 -59h-695q-182 0 -269 190q-17 45 -17 88zM69 243q0 -37 15 -74q76 -169 236 -169h680l40 39v921l-8 113q-74 198 -247 198h-676l-40 -39v-989zM420 308v652h265v-652h-265zM460 1613 q67 131 114 203t68 84h2l187 187q6 6 12 10q108 15 362 15l-321 -422l-183 -183l-16 -21q-81 27 -138.5 60.5t-86.5 66.5zM503 1617q18 -21 61 -44.5t109 -45.5l267 353q-92 0 -164 -3.5t-123 -10.5q-14 -8 -52 -70t-98 -179z" />
<glyph unicode="&#xf4;" horiz-adv-x="1130" d="M34 243v1003l60 60h4l197 197h690q196 0 279 -224l8 -118v-936l-197 -197v-4l-60 -59h-695q-182 0 -269 190q-17 45 -17 88zM69 243q0 -37 15 -74q76 -169 236 -169h680l40 39v921l-8 113q-74 198 -247 198h-676l-40 -39v-989zM330 1578v170l59 59h4l197 197h547l58 -57 v-168l-197 -197v-4l-60 -59h-549zM365 1593l39 -39h519l40 39v140l-40 39h-519l-39 -39v-140zM420 308v652h265v-652h-265z" />
<glyph unicode="&#xf5;" horiz-adv-x="1130" d="M34 243v1003l60 60h4l197 197h690q196 0 279 -224l8 -118v-936l-197 -197v-4l-60 -59h-695q-182 0 -269 190q-17 45 -17 88zM69 243q0 -37 15 -74q76 -169 236 -169h680l40 39v921l-8 113q-74 198 -247 198h-676l-40 -39v-989zM309 1658v234l6 -3l197 198 q192 -82 222 -82q15 0 147 38l38 5q113 0 259 -97v-179l-197 -197v-4l-80 -80q-74 40 -121 59t-67 19h-25q-54 -11 -92 -16t-55 -5h-62q-170 18 -170 110zM344 1658q0 -60 138 -75h59q36 0 146 21h26q26 0 71 -17t111 -52l51 51v147q-125 83 -224 83l-35 -5 q-132 -38 -153 -38q-34 0 -190 66v-181zM420 308v652h265v-652h-265z" />
<glyph unicode="&#xf6;" horiz-adv-x="1130" d="M34 243v1003l60 60h4l197 197h690q196 0 279 -224l8 -118v-936l-197 -197v-4l-60 -59h-695q-182 0 -269 190q-17 45 -17 88zM69 243q0 -37 15 -74q76 -169 236 -169h680l40 39v921l-8 113q-74 198 -247 198h-676l-40 -39v-989zM420 308v652h265v-652h-265z" />
<glyph unicode="&#xf7;" horiz-adv-x="458" d="M35 259v245l49 49l-49 50v243l59 61h4l197 197h300l57 -58v-242l-50 -51l50 -50v-243l-197 -197v-4l-59 -59h-302zM70 274l39 -39h272l39 39v215l-39 39h-272l-39 -39v-215zM70 618l39 -40h272l39 40v214l-39 40h-272l-39 -40v-214z" />
<glyph unicode="&#xf8;" horiz-adv-x="1130" d="M34 243v1003l60 60h4l197 197h690q196 0 279 -224l8 -118v-936l-197 -197v-4l-60 -59h-695q-182 0 -269 190q-17 45 -17 88zM69 243q0 -37 15 -74q76 -169 236 -169h680l40 39v921l-8 113q-74 198 -247 198h-676l-40 -39v-989zM222 -101l569 1610l4 -2l198 198l265 -91 l-568 -1607l-195 -194l-3 -10zM267 -80l204 -72l546 1546l-204 71zM420 308v652h265v-652h-265z" />
<glyph unicode="&#xf9;" horiz-adv-x="1190" d="M33 257v753q0 155 112 236l168 168q59 59 164 89h120l58 -57v-874q14 4 27.5 8.5t27.5 9.5v657l59 59h4l197 197h304l57 -57v-1221l-197 -197v-4l-59 -59h-306l-59 59v40q-318 -99 -355 -99h-47q-179 0 -267 216zM68 260l8 -70q78 -190 232 -190h47q28 0 390 113v-74 l39 -39h276l39 39v1193l-39 39h-276l-39 -39v-802q-45 -14 -85 -26.5t-79 -25t-78 -24.5t-80 -25v903l-40 39h-101q-214 -60 -214 -261v-750zM398 1804h9l197 197h176q89 -5 146 -19t83 -40l6 2q6 -11 13.5 -25.5t16 -29.5t16.5 -30.5t15 -28.5q14 -27 32 -59t30 -54 q-5 -13 -13 -24.5t-19 -22.5l-180 -180q-26 -37 -77 -65.5t-129 -52.5zM468 1769l265 -356q74 23 115.5 47.5t54.5 54.5q-24 45 -54.5 100.5t-54.5 100.5l2 -8q-26 50 -217 61h-111z" />
<glyph unicode="&#xfa;" horiz-adv-x="1190" d="M33 257v753q0 155 112 236l168 168q59 59 164 89h120l58 -57v-874q14 4 27.5 8.5t27.5 9.5v657l59 59h4l197 197h304l57 -57v-1221l-197 -197v-4l-59 -59h-306l-59 59v40q-318 -99 -355 -99h-47q-179 0 -267 216zM68 260l8 -70q78 -190 232 -190h47q28 0 390 113v-74 l39 -39h276l39 39v1193l-39 39h-276l-39 -39v-802q-45 -14 -85 -26.5t-79 -25t-78 -24.5t-80 -25v903l-40 39h-101q-214 -60 -214 -261v-750zM516 1522q67 131 114 203t68 84h2l187 187q6 6 12 10q108 15 362 15l-321 -422l-183 -183l-16 -21q-81 27 -138.5 60.5t-86.5 66.5 zM559 1526q18 -21 61 -44.5t109 -45.5l267 353q-92 0 -164 -3.5t-123 -10.5q-14 -8 -52 -70t-98 -179z" />
<glyph unicode="&#xfb;" horiz-adv-x="1190" d="M33 257v753q0 155 112 236l168 168q59 59 164 89h120l58 -57v-874q14 4 27.5 8.5t27.5 9.5v657l59 59h4l197 197h304l57 -57v-1221l-197 -197v-4l-59 -59h-306l-59 59v40q-318 -99 -355 -99h-47q-179 0 -267 216zM68 260l8 -70q78 -190 232 -190h47q28 0 390 113v-74 l39 -39h276l39 39v1193l-39 39h-276l-39 -39v-802q-45 -14 -85 -26.5t-79 -25t-78 -24.5t-80 -25v903l-40 39h-101q-214 -60 -214 -261v-750zM360 1573v170l59 59h4l197 197h547l58 -57v-168l-197 -197v-4l-60 -59h-549zM395 1588l39 -39h519l40 39v140l-40 39h-519l-39 -39 v-140z" />
<glyph unicode="&#xfc;" horiz-adv-x="1190" d="M33 257v753q0 155 112 236l168 168q59 59 164 89h120l58 -57v-874q14 4 27.5 8.5t27.5 9.5v657l59 59h4l197 197h304l57 -57v-1221l-197 -197v-4l-59 -59h-306l-59 59v40q-318 -99 -355 -99h-47q-179 0 -267 216zM68 260l8 -70q78 -190 232 -190h47q28 0 390 113v-74 l39 -39h276l39 39v1193l-39 39h-276l-39 -39v-802q-45 -14 -85 -26.5t-79 -25t-78 -24.5t-80 -25v903l-40 39h-101q-214 -60 -214 -261v-750z" />
<glyph unicode="&#xfd;" horiz-adv-x="1065" d="M31 1217v93h6l197 197h340q30 0 100 -112l112 112h189q326 0 326 -179v-14q0 -77 -160 -359q-17 -35 -34 -68t-33 -65q-17 -35 -33 -66.5t-34 -68.5v-462l-197 -197v-4l-59 -59h-303l-59 59v540q-57 23 -98.5 81t-73.5 153q-93 194 -139.5 298t-46.5 121zM66 1217 q0 -13 46 -113.5t137 -291.5q63 -193 175 -223v-550l39 -39h273l39 39v456q36 74 70.5 141.5t70.5 141.5l-1 -3q154 270 154 339v14q0 147 -294 147h-175l-40 -40v-168l40 -39h60q-20 -47 -32.5 -79t-25.5 -64q-190 390 -228 390h-308v-58zM481 1597q67 131 114 203t68 84h2 l187 187q6 6 12 10q108 15 362 15l-321 -422l-183 -183l-16 -21q-81 27 -138.5 60.5t-86.5 66.5zM524 1601q18 -21 61 -44.5t109 -45.5l267 353q-92 0 -164 -3.5t-123 -10.5q-14 -8 -52 -70t-98 -179z" />
<glyph unicode="&#xfe;" horiz-adv-x="1305" d="M34 244v1003l59 59h4l197 197h677q109 0 181 -55t111 -167l8 -101q0 -107 -45 -180l45 -45v-730l-197 -197v-4l-59 -59h-681q-215 0 -296 224zM69 245l4 -49q70 -196 261 -196h666l39 39v702l-39 40h-28q67 73 67 198l-8 96q-69 196 -260 196h-663l-39 -39v-987zM373 308 l32 -14l15 -33v47h-47zM420 308v251h265v-251h-265zM420 870v90h265v-90h-265z" />
<glyph unicode="&#xff;" horiz-adv-x="1065" d="M31 1217v93h6l197 197h340q30 0 100 -112l112 112h189q326 0 326 -179v-14q0 -77 -160 -359q-17 -35 -34 -68t-33 -65q-17 -35 -33 -66.5t-34 -68.5v-462l-197 -197v-4l-59 -59h-303l-59 59v540q-57 23 -98.5 81t-73.5 153q-93 194 -139.5 298t-46.5 121zM66 1217 q0 -13 46 -113.5t137 -291.5q63 -193 175 -223v-550l39 -39h273l39 39v456q36 74 70.5 141.5t70.5 141.5l-1 -3q154 270 154 339v14q0 147 -294 147h-175l-40 -40v-168l40 -39h60q-20 -47 -32.5 -79t-25.5 -64q-190 390 -228 390h-308v-58z" />
<glyph unicode="&#x152;" horiz-adv-x="2048" />
<glyph unicode="&#x153;" horiz-adv-x="1933" />
<glyph unicode="&#x178;" horiz-adv-x="1366" />
<glyph unicode="&#x2c6;" horiz-adv-x="929" d="M32 24v170l59 59h4l197 197h547l58 -57v-168l-197 -197v-4l-60 -59h-549zM67 39l39 -39h519l40 39v140l-40 39h-519l-39 -39v-140z" />
<glyph unicode="&#x2dc;" horiz-adv-x="932" d="M32 111v234l6 -3l197 198q192 -82 222 -82q15 0 147 38l38 5q113 0 259 -97v-179l-197 -197v-4l-80 -80q-74 40 -121 59t-67 19h-25q-54 -11 -92 -16t-55 -5h-62q-170 18 -170 110zM67 111q0 -60 138 -75h59q36 0 146 21h26q26 0 71 -17t111 -52l51 51v147 q-125 83 -224 83l-35 -5q-132 -38 -153 -38q-34 0 -190 66v-181z" />
<glyph unicode="&#x2000;" horiz-adv-x="1084" />
<glyph unicode="&#x2001;" horiz-adv-x="2168" />
<glyph unicode="&#x2002;" horiz-adv-x="1084" />
<glyph unicode="&#x2003;" horiz-adv-x="2168" />
<glyph unicode="&#x2004;" horiz-adv-x="722" />
<glyph unicode="&#x2005;" horiz-adv-x="542" />
<glyph unicode="&#x2006;" horiz-adv-x="361" />
<glyph unicode="&#x2007;" horiz-adv-x="361" />
<glyph unicode="&#x2008;" horiz-adv-x="271" />
<glyph unicode="&#x2009;" horiz-adv-x="433" />
<glyph unicode="&#x200a;" horiz-adv-x="120" />
<glyph unicode="&#x2010;" horiz-adv-x="1164" d="M32 449v440h6l197 197h24l197 197h40.5h57t65 0.5t65 0.5t57 0.5t40.5 0.5t42.5 0.5t61.5 0.5t71 0.5t71 0.5h62h43v-409l-197 -197v-24l-197 -197v-6q-20 0 -64.5 -0.5t-94.5 -1t-96.5 -1t-69.5 -0.5h-26q-40 0 -95 -0.5t-108 -1t-95.5 -0.5h-56.5zM67 484h56.5t87 0.5 l95 1t81.5 0.5h26q23 0 64 0.5t84.5 1t82.5 1t59 0.5v6l197 197v363h-40.5h-56t-63 -0.5t-63 -0.5t-55.5 -0.5t-40 -0.5q-23 0 -66 -0.5t-90 -1t-90.5 -0.5h-65.5l-197 -197h-6v-370zM102 519v300h60.5t80 0.5t79.5 1t61 0.5q22 0 61 0.5t81 1t81 0.5h62v-299 q-20 0 -53.5 -0.5t-70.5 -1t-72.5 -1t-58.5 -0.5h-26q-26 0 -66 -0.5t-82 -1t-79 -0.5h-58z" />
<glyph unicode="&#x2011;" horiz-adv-x="1164" d="M32 449v440h6l197 197h24l197 197h40.5h57t65 0.5t65 0.5t57 0.5t40.5 0.5t42.5 0.5t61.5 0.5t71 0.5t71 0.5h62h43v-409l-197 -197v-24l-197 -197v-6q-20 0 -64.5 -0.5t-94.5 -1t-96.5 -1t-69.5 -0.5h-26q-40 0 -95 -0.5t-108 -1t-95.5 -0.5h-56.5zM67 484h56.5t87 0.5 l95 1t81.5 0.5h26q23 0 64 0.5t84.5 1t82.5 1t59 0.5v6l197 197v363h-40.5h-56t-63 -0.5t-63 -0.5t-55.5 -0.5t-40 -0.5q-23 0 -66 -0.5t-90 -1t-90.5 -0.5h-65.5l-197 -197h-6v-370zM102 519v300h60.5t80 0.5t79.5 1t61 0.5q22 0 61 0.5t81 1t81 0.5h62v-299 q-20 0 -53.5 -0.5t-70.5 -1t-72.5 -1t-58.5 -0.5h-26q-26 0 -66 -0.5t-82 -1t-79 -0.5h-58z" />
<glyph unicode="&#x2012;" horiz-adv-x="1164" d="M32 449v440h6l197 197h24l197 197h40.5h57t65 0.5t65 0.5t57 0.5t40.5 0.5t42.5 0.5t61.5 0.5t71 0.5t71 0.5h62h43v-409l-197 -197v-24l-197 -197v-6q-20 0 -64.5 -0.5t-94.5 -1t-96.5 -1t-69.5 -0.5h-26q-40 0 -95 -0.5t-108 -1t-95.5 -0.5h-56.5zM67 484h56.5t87 0.5 l95 1t81.5 0.5h26q23 0 64 0.5t84.5 1t82.5 1t59 0.5v6l197 197v363h-40.5h-56t-63 -0.5t-63 -0.5t-55.5 -0.5t-40 -0.5q-23 0 -66 -0.5t-90 -1t-90.5 -0.5h-65.5l-197 -197h-6v-370zM102 519v300h60.5t80 0.5t79.5 1t61 0.5q22 0 61 0.5t81 1t81 0.5h62v-299 q-20 0 -53.5 -0.5t-70.5 -1t-72.5 -1t-58.5 -0.5h-26q-26 0 -66 -0.5t-82 -1t-79 -0.5h-58z" />
<glyph unicode="&#x2013;" horiz-adv-x="1139" />
<glyph unicode="&#x2014;" horiz-adv-x="2048" />
<glyph unicode="&#x2018;" horiz-adv-x="455" />
<glyph unicode="&#x2019;" horiz-adv-x="455" />
<glyph unicode="&#x201a;" horiz-adv-x="455" />
<glyph unicode="&#x201c;" horiz-adv-x="682" />
<glyph unicode="&#x201d;" horiz-adv-x="682" />
<glyph unicode="&#x201e;" horiz-adv-x="682" />
<glyph unicode="&#x2022;" horiz-adv-x="717" />
<glyph unicode="&#x2026;" horiz-adv-x="2048" />
<glyph unicode="&#x202f;" horiz-adv-x="433" />
<glyph unicode="&#x2039;" horiz-adv-x="682" />
<glyph unicode="&#x203a;" horiz-adv-x="682" />
<glyph unicode="&#x205f;" horiz-adv-x="542" />
<glyph unicode="&#x20ac;" horiz-adv-x="1139" />
<glyph unicode="&#x2122;" horiz-adv-x="2048" />
<glyph unicode="&#x25fc;" horiz-adv-x="1505" d="M0 0v1505h1505v-1505h-1505z" />
</font>
</defs>
</svg>
